<svg viewBox="0 0 1440 328" width="1440" height="328" xmlns="http://www.w3.org/2000/svg" role="img">
<style>text{font-family:Arial,sans-serif;fill:#1f2937}.small{font-size:12px}.title{font-size:18px;font-weight:700}.stage{font-size:13px;font-weight:700}.node-label{font-size:11px}</style>
<rect x="0" y="0" width="1440" height="328" fill="#ffffff"/>
<text class="title" x="24" y="30">Fixit v2 GLM 8-turns / mha_bwd_d128_causal: turn-to-turn correctness flow</text>
<text class="small" x="24" y="52">Trajectories: 20; shared definition/prompt-tag subset</text>
<path d="M 90.0 141.0 C 155.3 141.0, 173.8 141.0, 257.1 141.0" fill="none" stroke="#7b6fd6" stroke-opacity="0.30" stroke-width="66.0"><title>turn 0 Compilation error -> turn 1 Compilation error: 11</title></path>
<path d="M 90.0 177.0 C 155.3 177.0, 173.8 241.0, 257.1 241.0" fill="none" stroke="#d33f49" stroke-opacity="0.30" stroke-width="6.0"><title>turn 0 Compilation error -> turn 1 Kernel Execution Timeout: 1</title></path>
<path d="M 90.0 195.0 C 155.3 195.0, 173.8 209.0, 257.1 209.0" fill="none" stroke="#d55e00" stroke-opacity="0.30" stroke-width="30.0"><title>turn 0 Compilation error -> turn 1 Runtime error: 5</title></path>
<path d="M 90.0 241.0 C 155.3 241.0, 173.8 177.0, 257.1 177.0" fill="none" stroke="#7b6fd6" stroke-opacity="0.30" stroke-width="6.0"><title>turn 0 Extraction error -> turn 1 Compilation error: 1</title></path>
<path d="M 90.0 221.0 C 155.3 221.0, 173.8 183.0, 257.1 183.0" fill="none" stroke="#7b6fd6" stroke-opacity="0.30" stroke-width="6.0"><title>turn 0 Runtime error -> turn 1 Compilation error: 1</title></path>
<path d="M 90.0 227.0 C 155.3 227.0, 173.8 227.0, 257.1 227.0" fill="none" stroke="#d55e00" stroke-opacity="0.30" stroke-width="6.0"><title>turn 0 Runtime error -> turn 1 Runtime error: 1</title></path>
<path d="M 275.1428571428571 138.0 C 340.5 138.0, 359.0 138.0, 442.3 138.0" fill="none" stroke="#7b6fd6" stroke-opacity="0.30" stroke-width="60.0"><title>turn 1 Compilation error -> turn 2 Compilation error: 10</title></path>
<path d="M 275.1428571428571 171.0 C 340.5 171.0, 359.0 235.0, 442.3 235.0" fill="none" stroke="#e4a72b" stroke-opacity="0.30" stroke-width="6.0"><title>turn 1 Compilation error -> turn 2 Numerical error: 1</title></path>
<path d="M 275.1428571428571 180.0 C 340.5 180.0, 359.0 200.0, 442.3 200.0" fill="none" stroke="#d55e00" stroke-opacity="0.30" stroke-width="12.0"><title>turn 1 Compilation error -> turn 2 Runtime error: 2</title></path>
<path d="M 275.1428571428571 241.0 C 340.5 241.0, 359.0 171.0, 442.3 171.0" fill="none" stroke="#7b6fd6" stroke-opacity="0.30" stroke-width="6.0"><title>turn 1 Kernel Execution Timeout -> turn 2 Compilation error: 1</title></path>
<path d="M 275.1428571428571 200.0 C 340.5 200.0, 359.0 180.0, 442.3 180.0" fill="none" stroke="#7b6fd6" stroke-opacity="0.30" stroke-width="12.0"><title>turn 1 Runtime error -> turn 2 Compilation error: 2</title></path>
<path d="M 275.1428571428571 209.0 C 340.5 209.0, 359.0 241.0, 442.3 241.0" fill="none" stroke="#e4a72b" stroke-opacity="0.30" stroke-width="6.0"><title>turn 1 Runtime error -> turn 2 Numerical error: 1</title></path>
<path d="M 275.1428571428571 221.0 C 340.5 221.0, 359.0 215.0, 442.3 215.0" fill="none" stroke="#d55e00" stroke-opacity="0.30" stroke-width="18.0"><title>turn 1 Runtime error -> turn 2 Runtime error: 3</title></path>
<path d="M 460.2857142857143 129.0 C 525.6 129.0, 544.1 129.0, 627.4 129.0" fill="none" stroke="#7b6fd6" stroke-opacity="0.30" stroke-width="42.0"><title>turn 2 Compilation error -> turn 3 Compilation error: 7</title></path>
<path d="M 460.2857142857143 153.0 C 525.6 153.0, 544.1 205.0, 627.4 205.0" fill="none" stroke="#d33f49" stroke-opacity="0.30" stroke-width="6.0"><title>turn 2 Compilation error -> turn 3 Kernel Execution Timeout: 1</title></path>
<path d="M 460.2857142857143 162.0 C 525.6 162.0, 544.1 228.0, 627.4 228.0" fill="none" stroke="#e4a72b" stroke-opacity="0.30" stroke-width="12.0"><title>turn 2 Compilation error -> turn 3 Numerical error: 2</title></path>
<path d="M 460.2857142857143 177.0 C 525.6 177.0, 544.1 173.0, 627.4 173.0" fill="none" stroke="#d55e00" stroke-opacity="0.30" stroke-width="18.0"><title>turn 2 Compilation error -> turn 3 Runtime error: 3</title></path>
<path d="M 460.2857142857143 235.0 C 525.6 235.0, 544.1 237.0, 627.4 237.0" fill="none" stroke="#e4a72b" stroke-opacity="0.30" stroke-width="6.0"><title>turn 2 Numerical error -> turn 3 Numerical error: 1</title></path>
<path d="M 460.2857142857143 241.0 C 525.6 241.0, 544.1 185.0, 627.4 185.0" fill="none" stroke="#d55e00" stroke-opacity="0.30" stroke-width="6.0"><title>turn 2 Numerical error -> turn 3 Runtime error: 1</title></path>
<path d="M 460.2857142857143 197.0 C 525.6 197.0, 544.1 153.0, 627.4 153.0" fill="none" stroke="#7b6fd6" stroke-opacity="0.30" stroke-width="6.0"><title>turn 2 Runtime error -> turn 3 Compilation error: 1</title></path>
<path d="M 460.2857142857143 203.0 C 525.6 203.0, 544.1 211.0, 627.4 211.0" fill="none" stroke="#d33f49" stroke-opacity="0.30" stroke-width="6.0"><title>turn 2 Runtime error -> turn 3 Kernel Execution Timeout: 1</title></path>
<path d="M 460.2857142857143 212.0 C 525.6 212.0, 544.1 246.0, 627.4 246.0" fill="none" stroke="#e4a72b" stroke-opacity="0.30" stroke-width="12.0"><title>turn 2 Runtime error -> turn 3 Numerical error: 2</title></path>
<path d="M 460.2857142857143 221.0 C 525.6 221.0, 544.1 191.0, 627.4 191.0" fill="none" stroke="#d55e00" stroke-opacity="0.30" stroke-width="6.0"><title>turn 2 Runtime error -> turn 3 Runtime error: 1</title></path>
<path d="M 645.4285714285714 120.0 C 710.7 120.0, 729.3 120.0, 812.6 120.0" fill="none" stroke="#7b6fd6" stroke-opacity="0.30" stroke-width="24.0"><title>turn 3 Compilation error -> turn 4 Compilation error: 4</title></path>
<path d="M 645.4285714285714 135.0 C 710.7 135.0, 729.3 205.0, 812.6 205.0" fill="none" stroke="#d33f49" stroke-opacity="0.30" stroke-width="6.0"><title>turn 3 Compilation error -> turn 4 Kernel Execution Timeout: 1</title></path>
<path d="M 645.4285714285714 141.0 C 710.7 141.0, 729.3 231.0, 812.6 231.0" fill="none" stroke="#e4a72b" stroke-opacity="0.30" stroke-width="6.0"><title>turn 3 Compilation error -> turn 4 Numerical error: 1</title></path>
<path d="M 645.4285714285714 150.0 C 710.7 150.0, 729.3 170.0, 812.6 170.0" fill="none" stroke="#d55e00" stroke-opacity="0.30" stroke-width="12.0"><title>turn 3 Compilation error -> turn 4 Runtime error: 2</title></path>
<path d="M 645.4285714285714 205.0 C 710.7 205.0, 729.3 135.0, 812.6 135.0" fill="none" stroke="#7b6fd6" stroke-opacity="0.30" stroke-width="6.0"><title>turn 3 Kernel Execution Timeout -> turn 4 Compilation error: 1</title></path>
<path d="M 645.4285714285714 211.0 C 710.7 211.0, 729.3 211.0, 812.6 211.0" fill="none" stroke="#d33f49" stroke-opacity="0.30" stroke-width="6.0"><title>turn 3 Kernel Execution Timeout -> turn 4 Kernel Execution Timeout: 1</title></path>
<path d="M 645.4285714285714 225.0 C 710.7 225.0, 729.3 141.0, 812.6 141.0" fill="none" stroke="#7b6fd6" stroke-opacity="0.30" stroke-width="6.0"><title>turn 3 Numerical error -> turn 4 Compilation error: 1</title></path>
<path d="M 645.4285714285714 234.0 C 710.7 234.0, 729.3 240.0, 812.6 240.0" fill="none" stroke="#e4a72b" stroke-opacity="0.30" stroke-width="12.0"><title>turn 3 Numerical error -> turn 4 Numerical error: 2</title></path>
<path d="M 645.4285714285714 246.0 C 710.7 246.0, 729.3 182.0, 812.6 182.0" fill="none" stroke="#d55e00" stroke-opacity="0.30" stroke-width="12.0"><title>turn 3 Numerical error -> turn 4 Runtime error: 2</title></path>
<path d="M 645.4285714285714 170.0 C 710.7 170.0, 729.3 150.0, 812.6 150.0" fill="none" stroke="#7b6fd6" stroke-opacity="0.30" stroke-width="12.0"><title>turn 3 Runtime error -> turn 4 Compilation error: 2</title></path>
<path d="M 645.4285714285714 179.0 C 710.7 179.0, 729.3 217.0, 812.6 217.0" fill="none" stroke="#d33f49" stroke-opacity="0.30" stroke-width="6.0"><title>turn 3 Runtime error -> turn 4 Kernel Execution Timeout: 1</title></path>
<path d="M 645.4285714285714 185.0 C 710.7 185.0, 729.3 249.0, 812.6 249.0" fill="none" stroke="#e4a72b" stroke-opacity="0.30" stroke-width="6.0"><title>turn 3 Runtime error -> turn 4 Numerical error: 1</title></path>
<path d="M 645.4285714285714 191.0 C 710.7 191.0, 729.3 191.0, 812.6 191.0" fill="none" stroke="#d55e00" stroke-opacity="0.30" stroke-width="6.0"><title>turn 3 Runtime error -> turn 4 Runtime error: 1</title></path>
<path d="M 830.5714285714286 114.0 C 895.9 114.0, 914.4 114.0, 997.7 114.0" fill="none" stroke="#7b6fd6" stroke-opacity="0.30" stroke-width="12.0"><title>turn 4 Compilation error -> turn 5 Compilation error: 2</title></path>
<path d="M 830.5714285714286 126.0 C 895.9 126.0, 914.4 214.0, 997.7 214.0" fill="none" stroke="#d33f49" stroke-opacity="0.30" stroke-width="12.0"><title>turn 4 Compilation error -> turn 5 Kernel Execution Timeout: 2</title></path>
<path d="M 830.5714285714286 135.0 C 895.9 135.0, 914.4 237.0, 997.7 237.0" fill="none" stroke="#e4a72b" stroke-opacity="0.30" stroke-width="6.0"><title>turn 4 Compilation error -> turn 5 Numerical error: 1</title></path>
<path d="M 830.5714285714286 147.0 C 895.9 147.0, 914.4 155.0, 997.7 155.0" fill="none" stroke="#d55e00" stroke-opacity="0.30" stroke-width="18.0"><title>turn 4 Compilation error -> turn 5 Runtime error: 3</title></path>
<path d="M 830.5714285714286 205.0 C 895.9 205.0, 914.4 123.0, 997.7 123.0" fill="none" stroke="#7b6fd6" stroke-opacity="0.30" stroke-width="6.0"><title>turn 4 Kernel Execution Timeout -> turn 5 Compilation error: 1</title></path>
<path d="M 830.5714285714286 214.0 C 895.9 214.0, 914.4 170.0, 997.7 170.0" fill="none" stroke="#d55e00" stroke-opacity="0.30" stroke-width="12.0"><title>turn 4 Kernel Execution Timeout -> turn 5 Runtime error: 2</title></path>
<path d="M 830.5714285714286 231.0 C 895.9 231.0, 914.4 223.0, 997.7 223.0" fill="none" stroke="#d33f49" stroke-opacity="0.30" stroke-width="6.0"><title>turn 4 Numerical error -> turn 5 Kernel Execution Timeout: 1</title></path>
<path d="M 830.5714285714286 240.0 C 895.9 240.0, 914.4 246.0, 997.7 246.0" fill="none" stroke="#e4a72b" stroke-opacity="0.30" stroke-width="12.0"><title>turn 4 Numerical error -> turn 5 Numerical error: 2</title></path>
<path d="M 830.5714285714286 249.0 C 895.9 249.0, 914.4 179.0, 997.7 179.0" fill="none" stroke="#d55e00" stroke-opacity="0.30" stroke-width="6.0"><title>turn 4 Numerical error -> turn 5 Runtime error: 1</title></path>
<path d="M 830.5714285714286 170.0 C 895.9 170.0, 914.4 132.0, 997.7 132.0" fill="none" stroke="#7b6fd6" stroke-opacity="0.30" stroke-width="12.0"><title>turn 4 Runtime error -> turn 5 Compilation error: 2</title></path>
<path d="M 830.5714285714286 185.0 C 895.9 185.0, 914.4 191.0, 997.7 191.0" fill="none" stroke="#d55e00" stroke-opacity="0.30" stroke-width="18.0"><title>turn 4 Runtime error -> turn 5 Runtime error: 3</title></path>
<path d="M 1015.7142857142857 117.0 C 1081.0 117.0, 1099.5 117.0, 1182.9 117.0" fill="none" stroke="#7b6fd6" stroke-opacity="0.30" stroke-width="18.0"><title>turn 5 Compilation error -> turn 6 Compilation error: 3</title></path>
<path d="M 1015.7142857142857 129.0 C 1081.0 129.0, 1099.5 237.0, 1182.9 237.0" fill="none" stroke="#e4a72b" stroke-opacity="0.30" stroke-width="6.0"><title>turn 5 Compilation error -> turn 6 Numerical error: 1</title></path>
<path d="M 1015.7142857142857 135.0 C 1081.0 135.0, 1099.5 167.0, 1182.9 167.0" fill="none" stroke="#d55e00" stroke-opacity="0.30" stroke-width="6.0"><title>turn 5 Compilation error -> turn 6 Runtime error: 1</title></path>
<path d="M 1015.7142857142857 211.0 C 1081.0 211.0, 1099.5 129.0, 1182.9 129.0" fill="none" stroke="#7b6fd6" stroke-opacity="0.30" stroke-width="6.0"><title>turn 5 Kernel Execution Timeout -> turn 6 Compilation error: 1</title></path>
<path d="M 1015.7142857142857 217.0 C 1081.0 217.0, 1099.5 217.0, 1182.9 217.0" fill="none" stroke="#d33f49" stroke-opacity="0.30" stroke-width="6.0"><title>turn 5 Kernel Execution Timeout -> turn 6 Kernel Execution Timeout: 1</title></path>
<path d="M 1015.7142857142857 223.0 C 1081.0 223.0, 1099.5 243.0, 1182.9 243.0" fill="none" stroke="#e4a72b" stroke-opacity="0.30" stroke-width="6.0"><title>turn 5 Kernel Execution Timeout -> turn 6 Numerical error: 1</title></path>
<path d="M 1015.7142857142857 243.0 C 1081.0 243.0, 1099.5 141.0, 1182.9 141.0" fill="none" stroke="#7b6fd6" stroke-opacity="0.30" stroke-width="18.0"><title>turn 5 Numerical error -> turn 6 Compilation error: 3</title></path>
<path d="M 1015.7142857142857 149.0 C 1081.0 149.0, 1099.5 153.0, 1182.9 153.0" fill="none" stroke="#7b6fd6" stroke-opacity="0.30" stroke-width="6.0"><title>turn 5 Runtime error -> turn 6 Compilation error: 1</title></path>
<path d="M 1015.7142857142857 155.0 C 1081.0 155.0, 1099.5 223.0, 1182.9 223.0" fill="none" stroke="#d33f49" stroke-opacity="0.30" stroke-width="6.0"><title>turn 5 Runtime error -> turn 6 Kernel Execution Timeout: 1</title></path>
<path d="M 1015.7142857142857 161.0 C 1081.0 161.0, 1099.5 249.0, 1182.9 249.0" fill="none" stroke="#e4a72b" stroke-opacity="0.30" stroke-width="6.0"><title>turn 5 Runtime error -> turn 6 Numerical error: 1</title></path>
<path d="M 1015.7142857142857 182.0 C 1081.0 182.0, 1099.5 188.0, 1182.9 188.0" fill="none" stroke="#d55e00" stroke-opacity="0.30" stroke-width="36.0"><title>turn 5 Runtime error -> turn 6 Runtime error: 6</title></path>
<path d="M 1200.857142857143 120.0 C 1266.2 120.0, 1284.7 120.0, 1368.0 120.0" fill="none" stroke="#7b6fd6" stroke-opacity="0.30" stroke-width="24.0"><title>turn 6 Compilation error -> turn 7 Compilation error: 4</title></path>
<path d="M 1200.857142857143 135.0 C 1266.2 135.0, 1284.7 235.0, 1368.0 235.0" fill="none" stroke="#e4a72b" stroke-opacity="0.30" stroke-width="6.0"><title>turn 6 Compilation error -> turn 7 Numerical error: 1</title></path>
<path d="M 1200.857142857143 147.0 C 1266.2 147.0, 1284.7 179.0, 1368.0 179.0" fill="none" stroke="#d55e00" stroke-opacity="0.30" stroke-width="18.0"><title>turn 6 Compilation error -> turn 7 Runtime error: 3</title></path>
<path d="M 1200.857142857143 220.0 C 1266.2 220.0, 1284.7 194.0, 1368.0 194.0" fill="none" stroke="#d55e00" stroke-opacity="0.30" stroke-width="12.0"><title>turn 6 Kernel Execution Timeout -> turn 7 Runtime error: 2</title></path>
<path d="M 1200.857142857143 237.0 C 1266.2 237.0, 1284.7 135.0, 1368.0 135.0" fill="none" stroke="#7b6fd6" stroke-opacity="0.30" stroke-width="6.0"><title>turn 6 Numerical error -> turn 7 Compilation error: 1</title></path>
<path d="M 1200.857142857143 243.0 C 1266.2 243.0, 1284.7 241.0, 1368.0 241.0" fill="none" stroke="#e4a72b" stroke-opacity="0.30" stroke-width="6.0"><title>turn 6 Numerical error -> turn 7 Numerical error: 1</title></path>
<path d="M 1200.857142857143 249.0 C 1266.2 249.0, 1284.7 203.0, 1368.0 203.0" fill="none" stroke="#d55e00" stroke-opacity="0.30" stroke-width="6.0"><title>turn 6 Numerical error -> turn 7 Runtime error: 1</title></path>
<path d="M 1200.857142857143 176.0 C 1266.2 176.0, 1284.7 150.0, 1368.0 150.0" fill="none" stroke="#7b6fd6" stroke-opacity="0.30" stroke-width="24.0"><title>turn 6 Runtime error -> turn 7 Compilation error: 4</title></path>
<path d="M 1200.857142857143 197.0 C 1266.2 197.0, 1284.7 215.0, 1368.0 215.0" fill="none" stroke="#d55e00" stroke-opacity="0.30" stroke-width="18.0"><title>turn 6 Runtime error -> turn 7 Runtime error: 3</title></path>
<text class="stage" x="60.0" y="76">turn 0</text>
<rect x="72.0" y="108.0" width="18" height="102.0" rx="3" fill="#7b6fd6"><title>Compilation error: 17</title></rect>
<text class="node-label" x="95.0" y="122.0" text-anchor="start">Compilation error (17)</text>
<rect x="72.0" y="218.0" width="18" height="12.0" rx="3" fill="#d55e00"><title>Runtime error: 2</title></rect>
<text class="node-label" x="95.0" y="230.0" text-anchor="start">Runtime error (2)</text>
<rect x="72.0" y="238.0" width="18" height="6.0" rx="3" fill="#0f766e"><title>Extraction error: 1</title></rect>
<text class="node-label" x="95.0" y="244.0" text-anchor="start">Extraction error (1)</text>
<text class="stage" x="245.1" y="76">turn 1</text>
<rect x="257.1" y="108.0" width="18" height="78.0" rx="3" fill="#7b6fd6"><title>Compilation error: 13</title></rect>
<text class="node-label" x="280.1" y="122.0" text-anchor="start">Compilation error (13)</text>
<rect x="257.1" y="194.0" width="18" height="36.0" rx="3" fill="#d55e00"><title>Runtime error: 6</title></rect>
<text class="node-label" x="280.1" y="208.0" text-anchor="start">Runtime error (6)</text>
<rect x="257.1" y="238.0" width="18" height="6.0" rx="3" fill="#d33f49"><title>Kernel Execution Timeout: 1</title></rect>
<text class="node-label" x="280.1" y="244.0" text-anchor="start">Kernel Execution Timeout (1)</text>
<text class="stage" x="430.3" y="76">turn 2</text>
<rect x="442.3" y="108.0" width="18" height="78.0" rx="3" fill="#7b6fd6"><title>Compilation error: 13</title></rect>
<text class="node-label" x="465.3" y="122.0" text-anchor="start">Compilation error (13)</text>
<rect x="442.3" y="194.0" width="18" height="30.0" rx="3" fill="#d55e00"><title>Runtime error: 5</title></rect>
<text class="node-label" x="465.3" y="208.0" text-anchor="start">Runtime error (5)</text>
<rect x="442.3" y="232.0" width="18" height="12.0" rx="3" fill="#e4a72b"><title>Numerical error: 2</title></rect>
<text class="node-label" x="465.3" y="244.0" text-anchor="start">Numerical error (2)</text>
<text class="stage" x="615.4" y="76">turn 3</text>
<rect x="627.4" y="108.0" width="18" height="48.0" rx="3" fill="#7b6fd6"><title>Compilation error: 8</title></rect>
<text class="node-label" x="650.4" y="122.0" text-anchor="start">Compilation error (8)</text>
<rect x="627.4" y="164.0" width="18" height="30.0" rx="3" fill="#d55e00"><title>Runtime error: 5</title></rect>
<text class="node-label" x="650.4" y="178.0" text-anchor="start">Runtime error (5)</text>
<rect x="627.4" y="202.0" width="18" height="12.0" rx="3" fill="#d33f49"><title>Kernel Execution Timeout: 2</title></rect>
<text class="node-label" x="650.4" y="214.0" text-anchor="start">Kernel Execution Timeout (2)</text>
<rect x="627.4" y="222.0" width="18" height="30.0" rx="3" fill="#e4a72b"><title>Numerical error: 5</title></rect>
<text class="node-label" x="650.4" y="236.0" text-anchor="start">Numerical error (5)</text>
<text class="stage" x="800.6" y="76">turn 4</text>
<rect x="812.6" y="108.0" width="18" height="48.0" rx="3" fill="#7b6fd6"><title>Compilation error: 8</title></rect>
<text class="node-label" x="835.6" y="122.0" text-anchor="start">Compilation error (8)</text>
<rect x="812.6" y="164.0" width="18" height="30.0" rx="3" fill="#d55e00"><title>Runtime error: 5</title></rect>
<text class="node-label" x="835.6" y="178.0" text-anchor="start">Runtime error (5)</text>
<rect x="812.6" y="202.0" width="18" height="18.0" rx="3" fill="#d33f49"><title>Kernel Execution Timeout: 3</title></rect>
<text class="node-label" x="835.6" y="216.0" text-anchor="start">Kernel Execution Timeout (3)</text>
<rect x="812.6" y="228.0" width="18" height="24.0" rx="3" fill="#e4a72b"><title>Numerical error: 4</title></rect>
<text class="node-label" x="835.6" y="242.0" text-anchor="start">Numerical error (4)</text>
<text class="stage" x="985.7" y="76">turn 5</text>
<rect x="997.7" y="108.0" width="18" height="30.0" rx="3" fill="#7b6fd6"><title>Compilation error: 5</title></rect>
<text class="node-label" x="1020.7" y="122.0" text-anchor="start">Compilation error (5)</text>
<rect x="997.7" y="146.0" width="18" height="54.0" rx="3" fill="#d55e00"><title>Runtime error: 9</title></rect>
<text class="node-label" x="1020.7" y="160.0" text-anchor="start">Runtime error (9)</text>
<rect x="997.7" y="208.0" width="18" height="18.0" rx="3" fill="#d33f49"><title>Kernel Execution Timeout: 3</title></rect>
<text class="node-label" x="1020.7" y="222.0" text-anchor="start">Kernel Execution Timeout (3)</text>
<rect x="997.7" y="234.0" width="18" height="18.0" rx="3" fill="#e4a72b"><title>Numerical error: 3</title></rect>
<text class="node-label" x="1020.7" y="248.0" text-anchor="start">Numerical error (3)</text>
<text class="stage" x="1170.9" y="76">turn 6</text>
<rect x="1182.9" y="108.0" width="18" height="48.0" rx="3" fill="#7b6fd6"><title>Compilation error: 8</title></rect>
<text class="node-label" x="1205.9" y="122.0" text-anchor="start">Compilation error (8)</text>
<rect x="1182.9" y="164.0" width="18" height="42.0" rx="3" fill="#d55e00"><title>Runtime error: 7</title></rect>
<text class="node-label" x="1205.9" y="178.0" text-anchor="start">Runtime error (7)</text>
<rect x="1182.9" y="214.0" width="18" height="12.0" rx="3" fill="#d33f49"><title>Kernel Execution Timeout: 2</title></rect>
<text class="node-label" x="1205.9" y="226.0" text-anchor="start">Kernel Execution Timeout (2)</text>
<rect x="1182.9" y="234.0" width="18" height="18.0" rx="3" fill="#e4a72b"><title>Numerical error: 3</title></rect>
<text class="node-label" x="1205.9" y="248.0" text-anchor="start">Numerical error (3)</text>
<text class="stage" x="1356.0" y="76">turn 7</text>
<rect x="1368.0" y="108.0" width="18" height="54.0" rx="3" fill="#7b6fd6"><title>Compilation error: 9</title></rect>
<text class="node-label" x="1361.0" y="122.0" text-anchor="end">Compilation error (9)</text>
<rect x="1368.0" y="170.0" width="18" height="54.0" rx="3" fill="#d55e00"><title>Runtime error: 9</title></rect>
<text class="node-label" x="1361.0" y="184.0" text-anchor="end">Runtime error (9)</text>
<rect x="1368.0" y="232.0" width="18" height="12.0" rx="3" fill="#e4a72b"><title>Numerical error: 2</title></rect>
<text class="node-label" x="1361.0" y="244.0" text-anchor="end">Numerical error (2)</text>
</svg>