<svg viewBox="0 0 1440 328" width="1440" height="328" xmlns="http://www.w3.org/2000/svg" role="img">
<style>text{font-family:Arial,sans-serif;fill:#1f2937}.small{font-size:12px}.title{font-size:18px;font-weight:700}.stage{font-size:13px;font-weight:700}.node-label{font-size:11px}</style>
<rect x="0" y="0" width="1440" height="328" fill="#ffffff"/>
<text class="title" x="24" y="30">Fixit v2 GLM / mha_bwd_d128_causal: turn-to-turn correctness flow</text>
<text class="small" x="24" y="52">Trajectories: 20; shared definition/prompt-tag subset</text>
<path d="M 90.0 138.0 C 155.3 138.0, 173.8 138.0, 257.1 138.0" fill="none" stroke="#7b6fd6" stroke-opacity="0.30" stroke-width="60.0"><title>turn 0 Compilation error -> turn 1 Compilation error: 10</title></path>
<path d="M 90.0 171.0 C 155.3 171.0, 173.8 223.0, 257.1 223.0" fill="none" stroke="#d33f49" stroke-opacity="0.30" stroke-width="6.0"><title>turn 0 Compilation error -> turn 1 Kernel Execution Timeout: 1</title></path>
<path d="M 90.0 177.0 C 155.3 177.0, 173.8 243.0, 257.1 243.0" fill="none" stroke="#e4a72b" stroke-opacity="0.30" stroke-width="6.0"><title>turn 0 Compilation error -> turn 1 Numerical error: 1</title></path>
<path d="M 90.0 186.0 C 155.3 186.0, 173.8 194.0, 257.1 194.0" fill="none" stroke="#d55e00" stroke-opacity="0.30" stroke-width="12.0"><title>turn 0 Compilation error -> turn 1 Runtime error: 2</title></path>
<path d="M 90.0 249.0 C 155.3 249.0, 173.8 171.0, 257.1 171.0" fill="none" stroke="#7b6fd6" stroke-opacity="0.30" stroke-width="6.0"><title>turn 0 Extraction error -> turn 1 Compilation error: 1</title></path>
<path d="M 90.0 235.0 C 155.3 235.0, 173.8 229.0, 257.1 229.0" fill="none" stroke="#d33f49" stroke-opacity="0.30" stroke-width="6.0"><title>turn 0 Kernel Execution Timeout -> turn 1 Kernel Execution Timeout: 1</title></path>
<path d="M 90.0 203.0 C 155.3 203.0, 173.8 177.0, 257.1 177.0" fill="none" stroke="#7b6fd6" stroke-opacity="0.30" stroke-width="6.0"><title>turn 0 Runtime error -> turn 1 Compilation error: 1</title></path>
<path d="M 90.0 209.0 C 155.3 209.0, 173.8 249.0, 257.1 249.0" fill="none" stroke="#e4a72b" stroke-opacity="0.30" stroke-width="6.0"><title>turn 0 Runtime error -> turn 1 Numerical error: 1</title></path>
<path d="M 90.0 218.0 C 155.3 218.0, 173.8 206.0, 257.1 206.0" fill="none" stroke="#d55e00" stroke-opacity="0.30" stroke-width="12.0"><title>turn 0 Runtime error -> turn 1 Runtime error: 2</title></path>
<path d="M 275.1428571428571 120.0 C 340.5 120.0, 359.0 134.0, 442.3 134.0" fill="none" stroke="#7b6fd6" stroke-opacity="0.30" stroke-width="24.0"><title>turn 1 Compilation error -> turn 2 Compilation error: 4</title></path>
<path d="M 275.1428571428571 135.0 C 340.5 135.0, 359.0 265.0, 442.3 265.0" fill="none" stroke="#0f766e" stroke-opacity="0.30" stroke-width="6.0"><title>turn 1 Compilation error -> turn 2 Extraction error: 1</title></path>
<path d="M 275.1428571428571 141.0 C 340.5 141.0, 359.0 213.0, 442.3 213.0" fill="none" stroke="#d33f49" stroke-opacity="0.30" stroke-width="6.0"><title>turn 1 Compilation error -> turn 2 Kernel Execution Timeout: 1</title></path>
<path d="M 275.1428571428571 153.0 C 340.5 153.0, 359.0 239.0, 442.3 239.0" fill="none" stroke="#e4a72b" stroke-opacity="0.30" stroke-width="18.0"><title>turn 1 Compilation error -> turn 2 Numerical error: 3</title></path>
<path d="M 275.1428571428571 171.0 C 340.5 171.0, 359.0 169.0, 442.3 169.0" fill="none" stroke="#d55e00" stroke-opacity="0.30" stroke-width="18.0"><title>turn 1 Compilation error -> turn 2 Runtime error: 3</title></path>
<path d="M 275.1428571428571 223.0 C 340.5 223.0, 359.0 219.0, 442.3 219.0" fill="none" stroke="#d33f49" stroke-opacity="0.30" stroke-width="6.0"><title>turn 1 Kernel Execution Timeout -> turn 2 Kernel Execution Timeout: 1</title></path>
<path d="M 275.1428571428571 229.0 C 340.5 229.0, 359.0 181.0, 442.3 181.0" fill="none" stroke="#d55e00" stroke-opacity="0.30" stroke-width="6.0"><title>turn 1 Kernel Execution Timeout -> turn 2 Runtime error: 1</title></path>
<path d="M 275.1428571428571 243.0 C 340.5 243.0, 359.0 149.0, 442.3 149.0" fill="none" stroke="#7b6fd6" stroke-opacity="0.30" stroke-width="6.0"><title>turn 1 Numerical error -> turn 2 Compilation error: 1</title></path>
<path d="M 275.1428571428571 249.0 C 340.5 249.0, 359.0 251.0, 442.3 251.0" fill="none" stroke="#e4a72b" stroke-opacity="0.30" stroke-width="6.0"><title>turn 1 Numerical error -> turn 2 Numerical error: 1</title></path>
<path d="M 275.1428571428571 191.0 C 340.5 191.0, 359.0 111.0, 442.3 111.0" fill="none" stroke="#2a9d55" stroke-opacity="0.30" stroke-width="6.0"><title>turn 1 Runtime error -> turn 2 Correct: 1</title></path>
<path d="M 275.1428571428571 203.0 C 340.5 203.0, 359.0 193.0, 442.3 193.0" fill="none" stroke="#d55e00" stroke-opacity="0.30" stroke-width="18.0"><title>turn 1 Runtime error -> turn 2 Runtime error: 3</title></path>
<path d="M 460.2857142857143 128.0 C 525.6 128.0, 544.1 128.0, 627.4 128.0" fill="none" stroke="#7b6fd6" stroke-opacity="0.30" stroke-width="12.0"><title>turn 2 Compilation error -> turn 3 Compilation error: 2</title></path>
<path d="M 460.2857142857143 143.0 C 525.6 143.0, 544.1 163.0, 627.4 163.0" fill="none" stroke="#d55e00" stroke-opacity="0.30" stroke-width="18.0"><title>turn 2 Compilation error -> turn 3 Runtime error: 3</title></path>
<path d="M 460.2857142857143 111.0 C 525.6 111.0, 544.1 219.0, 627.4 219.0" fill="none" stroke="#d33f49" stroke-opacity="0.30" stroke-width="6.0"><title>turn 2 Correct -> turn 3 Kernel Execution Timeout: 1</title></path>
<path d="M 460.2857142857143 265.0 C 525.6 265.0, 544.1 175.0, 627.4 175.0" fill="none" stroke="#d55e00" stroke-opacity="0.30" stroke-width="6.0"><title>turn 2 Extraction error -> turn 3 Runtime error: 1</title></path>
<path d="M 460.2857142857143 213.0 C 525.6 213.0, 544.1 225.0, 627.4 225.0" fill="none" stroke="#d33f49" stroke-opacity="0.30" stroke-width="6.0"><title>turn 2 Kernel Execution Timeout -> turn 3 Kernel Execution Timeout: 1</title></path>
<path d="M 460.2857142857143 219.0 C 525.6 219.0, 544.1 239.0, 627.4 239.0" fill="none" stroke="#e4a72b" stroke-opacity="0.30" stroke-width="6.0"><title>turn 2 Kernel Execution Timeout -> turn 3 Numerical error: 1</title></path>
<path d="M 460.2857142857143 233.0 C 525.6 233.0, 544.1 137.0, 627.4 137.0" fill="none" stroke="#7b6fd6" stroke-opacity="0.30" stroke-width="6.0"><title>turn 2 Numerical error -> turn 3 Compilation error: 1</title></path>
<path d="M 460.2857142857143 239.0 C 525.6 239.0, 544.1 111.0, 627.4 111.0" fill="none" stroke="#2a9d55" stroke-opacity="0.30" stroke-width="6.0"><title>turn 2 Numerical error -> turn 3 Correct: 1</title></path>
<path d="M 460.2857142857143 245.0 C 525.6 245.0, 544.1 245.0, 627.4 245.0" fill="none" stroke="#e4a72b" stroke-opacity="0.30" stroke-width="6.0"><title>turn 2 Numerical error -> turn 3 Numerical error: 1</title></path>
<path d="M 460.2857142857143 251.0 C 525.6 251.0, 544.1 181.0, 627.4 181.0" fill="none" stroke="#d55e00" stroke-opacity="0.30" stroke-width="6.0"><title>turn 2 Numerical error -> turn 3 Runtime error: 1</title></path>
<path d="M 460.2857142857143 163.0 C 525.6 163.0, 544.1 143.0, 627.4 143.0" fill="none" stroke="#7b6fd6" stroke-opacity="0.30" stroke-width="6.0"><title>turn 2 Runtime error -> turn 3 Compilation error: 1</title></path>
<path d="M 460.2857142857143 169.0 C 525.6 169.0, 544.1 265.0, 627.4 265.0" fill="none" stroke="#0f766e" stroke-opacity="0.30" stroke-width="6.0"><title>turn 2 Runtime error -> turn 3 Extraction error: 1</title></path>
<path d="M 460.2857142857143 175.0 C 525.6 175.0, 544.1 251.0, 627.4 251.0" fill="none" stroke="#e4a72b" stroke-opacity="0.30" stroke-width="6.0"><title>turn 2 Runtime error -> turn 3 Numerical error: 1</title></path>
<path d="M 460.2857142857143 190.0 C 525.6 190.0, 544.1 196.0, 627.4 196.0" fill="none" stroke="#d55e00" stroke-opacity="0.30" stroke-width="24.0"><title>turn 2 Runtime error -> turn 3 Runtime error: 4</title></path>
<path d="M 645.4285714285714 125.0 C 710.7 125.0, 729.3 125.0, 812.6 125.0" fill="none" stroke="#7b6fd6" stroke-opacity="0.30" stroke-width="6.0"><title>turn 3 Compilation error -> turn 4 Compilation error: 1</title></path>
<path d="M 645.4285714285714 137.0 C 710.7 137.0, 729.3 219.0, 812.6 219.0" fill="none" stroke="#e4a72b" stroke-opacity="0.30" stroke-width="18.0"><title>turn 3 Compilation error -> turn 4 Numerical error: 3</title></path>
<path d="M 645.4285714285714 111.0 C 710.7 111.0, 729.3 151.0, 812.6 151.0" fill="none" stroke="#d55e00" stroke-opacity="0.30" stroke-width="6.0"><title>turn 3 Correct -> turn 4 Runtime error: 1</title></path>
<path d="M 645.4285714285714 265.0 C 710.7 265.0, 729.3 157.0, 812.6 157.0" fill="none" stroke="#d55e00" stroke-opacity="0.30" stroke-width="6.0"><title>turn 3 Extraction error -> turn 4 Runtime error: 1</title></path>
<path d="M 645.4285714285714 219.0 C 710.7 219.0, 729.3 131.0, 812.6 131.0" fill="none" stroke="#7b6fd6" stroke-opacity="0.30" stroke-width="6.0"><title>turn 3 Kernel Execution Timeout -> turn 4 Compilation error: 1</title></path>
<path d="M 645.4285714285714 225.0 C 710.7 225.0, 729.3 111.0, 812.6 111.0" fill="none" stroke="#2a9d55" stroke-opacity="0.30" stroke-width="6.0"><title>turn 3 Kernel Execution Timeout -> turn 4 Correct: 1</title></path>
<path d="M 645.4285714285714 242.0 C 710.7 242.0, 729.3 234.0, 812.6 234.0" fill="none" stroke="#e4a72b" stroke-opacity="0.30" stroke-width="12.0"><title>turn 3 Numerical error -> turn 4 Numerical error: 2</title></path>
<path d="M 645.4285714285714 251.0 C 710.7 251.0, 729.3 163.0, 812.6 163.0" fill="none" stroke="#d55e00" stroke-opacity="0.30" stroke-width="6.0"><title>turn 3 Numerical error -> turn 4 Runtime error: 1</title></path>
<path d="M 645.4285714285714 157.0 C 710.7 157.0, 729.3 137.0, 812.6 137.0" fill="none" stroke="#7b6fd6" stroke-opacity="0.30" stroke-width="6.0"><title>turn 3 Runtime error -> turn 4 Compilation error: 1</title></path>
<path d="M 645.4285714285714 166.0 C 710.7 166.0, 729.3 246.0, 812.6 246.0" fill="none" stroke="#e4a72b" stroke-opacity="0.30" stroke-width="12.0"><title>turn 3 Runtime error -> turn 4 Numerical error: 2</title></path>
<path d="M 645.4285714285714 190.0 C 710.7 190.0, 729.3 184.0, 812.6 184.0" fill="none" stroke="#d55e00" stroke-opacity="0.30" stroke-width="36.0"><title>turn 3 Runtime error -> turn 4 Runtime error: 6</title></path>
<path d="M 830.5714285714286 131.0 C 895.9 131.0, 914.4 131.0, 997.7 131.0" fill="none" stroke="#7b6fd6" stroke-opacity="0.30" stroke-width="18.0"><title>turn 4 Compilation error -> turn 5 Compilation error: 3</title></path>
<path d="M 830.5714285714286 111.0 C 895.9 111.0, 914.4 143.0, 997.7 143.0" fill="none" stroke="#7b6fd6" stroke-opacity="0.30" stroke-width="6.0"><title>turn 4 Correct -> turn 5 Compilation error: 1</title></path>
<path d="M 830.5714285714286 213.0 C 895.9 213.0, 914.4 149.0, 997.7 149.0" fill="none" stroke="#7b6fd6" stroke-opacity="0.30" stroke-width="6.0"><title>turn 4 Numerical error -> turn 5 Compilation error: 1</title></path>
<path d="M 830.5714285714286 219.0 C 895.9 219.0, 914.4 111.0, 997.7 111.0" fill="none" stroke="#2a9d55" stroke-opacity="0.30" stroke-width="6.0"><title>turn 4 Numerical error -> turn 5 Correct: 1</title></path>
<path d="M 830.5714285714286 225.0 C 895.9 225.0, 914.4 201.0, 997.7 201.0" fill="none" stroke="#d33f49" stroke-opacity="0.30" stroke-width="6.0"><title>turn 4 Numerical error -> turn 5 Kernel Execution Timeout: 1</title></path>
<path d="M 830.5714285714286 240.0 C 895.9 240.0, 914.4 230.0, 997.7 230.0" fill="none" stroke="#e4a72b" stroke-opacity="0.30" stroke-width="24.0"><title>turn 4 Numerical error -> turn 5 Numerical error: 4</title></path>
<path d="M 830.5714285714286 151.0 C 895.9 151.0, 914.4 155.0, 997.7 155.0" fill="none" stroke="#7b6fd6" stroke-opacity="0.30" stroke-width="6.0"><title>turn 4 Runtime error -> turn 5 Compilation error: 1</title></path>
<path d="M 830.5714285714286 157.0 C 895.9 157.0, 914.4 265.0, 997.7 265.0" fill="none" stroke="#0f766e" stroke-opacity="0.30" stroke-width="6.0"><title>turn 4 Runtime error -> turn 5 Extraction error: 1</title></path>
<path d="M 830.5714285714286 163.0 C 895.9 163.0, 914.4 207.0, 997.7 207.0" fill="none" stroke="#d33f49" stroke-opacity="0.30" stroke-width="6.0"><title>turn 4 Runtime error -> turn 5 Kernel Execution Timeout: 1</title></path>
<path d="M 830.5714285714286 172.0 C 895.9 172.0, 914.4 248.0, 997.7 248.0" fill="none" stroke="#e4a72b" stroke-opacity="0.30" stroke-width="12.0"><title>turn 4 Runtime error -> turn 5 Numerical error: 2</title></path>
<path d="M 830.5714285714286 190.0 C 895.9 190.0, 914.4 178.0, 997.7 178.0" fill="none" stroke="#d55e00" stroke-opacity="0.30" stroke-width="24.0"><title>turn 4 Runtime error -> turn 5 Runtime error: 4</title></path>
<path d="M 1015.7142857142857 125.0 C 1081.0 125.0, 1099.5 111.0, 1182.9 111.0" fill="none" stroke="#7b6fd6" stroke-opacity="0.30" stroke-width="6.0"><title>turn 5 Compilation error -> turn 6 Compilation error: 1</title></path>
<path d="M 1015.7142857142857 131.0 C 1081.0 131.0, 1099.5 205.0, 1182.9 205.0" fill="none" stroke="#d33f49" stroke-opacity="0.30" stroke-width="6.0"><title>turn 5 Compilation error -> turn 6 Kernel Execution Timeout: 1</title></path>
<path d="M 1015.7142857142857 137.0 C 1081.0 137.0, 1099.5 225.0, 1182.9 225.0" fill="none" stroke="#e4a72b" stroke-opacity="0.30" stroke-width="6.0"><title>turn 5 Compilation error -> turn 6 Numerical error: 1</title></path>
<path d="M 1015.7142857142857 149.0 C 1081.0 149.0, 1099.5 143.0, 1182.9 143.0" fill="none" stroke="#d55e00" stroke-opacity="0.30" stroke-width="18.0"><title>turn 5 Compilation error -> turn 6 Runtime error: 3</title></path>
<path d="M 1015.7142857142857 111.0 C 1081.0 111.0, 1099.5 117.0, 1182.9 117.0" fill="none" stroke="#7b6fd6" stroke-opacity="0.30" stroke-width="6.0"><title>turn 5 Correct -> turn 6 Compilation error: 1</title></path>
<path d="M 1015.7142857142857 265.0 C 1081.0 265.0, 1099.5 155.0, 1182.9 155.0" fill="none" stroke="#d55e00" stroke-opacity="0.30" stroke-width="6.0"><title>turn 5 Extraction error -> turn 6 Runtime error: 1</title></path>
<path d="M 1015.7142857142857 201.0 C 1081.0 201.0, 1099.5 123.0, 1182.9 123.0" fill="none" stroke="#7b6fd6" stroke-opacity="0.30" stroke-width="6.0"><title>turn 5 Kernel Execution Timeout -> turn 6 Compilation error: 1</title></path>
<path d="M 1015.7142857142857 207.0 C 1081.0 207.0, 1099.5 161.0, 1182.9 161.0" fill="none" stroke="#d55e00" stroke-opacity="0.30" stroke-width="6.0"><title>turn 5 Kernel Execution Timeout -> turn 6 Runtime error: 1</title></path>
<path d="M 1015.7142857142857 221.0 C 1081.0 221.0, 1099.5 211.0, 1182.9 211.0" fill="none" stroke="#d33f49" stroke-opacity="0.30" stroke-width="6.0"><title>turn 5 Numerical error -> turn 6 Kernel Execution Timeout: 1</title></path>
<path d="M 1015.7142857142857 233.0 C 1081.0 233.0, 1099.5 237.0, 1182.9 237.0" fill="none" stroke="#e4a72b" stroke-opacity="0.30" stroke-width="18.0"><title>turn 5 Numerical error -> turn 6 Numerical error: 3</title></path>
<path d="M 1015.7142857142857 248.0 C 1081.0 248.0, 1099.5 170.0, 1182.9 170.0" fill="none" stroke="#d55e00" stroke-opacity="0.30" stroke-width="12.0"><title>turn 5 Numerical error -> turn 6 Runtime error: 2</title></path>
<path d="M 1015.7142857142857 169.0 C 1081.0 169.0, 1099.5 249.0, 1182.9 249.0" fill="none" stroke="#e4a72b" stroke-opacity="0.30" stroke-width="6.0"><title>turn 5 Runtime error -> turn 6 Numerical error: 1</title></path>
<path d="M 1015.7142857142857 181.0 C 1081.0 181.0, 1099.5 185.0, 1182.9 185.0" fill="none" stroke="#d55e00" stroke-opacity="0.30" stroke-width="18.0"><title>turn 5 Runtime error -> turn 6 Runtime error: 3</title></path>
<path d="M 1200.857142857143 111.0 C 1266.2 111.0, 1284.7 239.0, 1368.0 239.0" fill="none" stroke="#e4a72b" stroke-opacity="0.30" stroke-width="6.0"><title>turn 6 Compilation error -> turn 7 Numerical error: 1</title></path>
<path d="M 1200.857142857143 120.0 C 1266.2 120.0, 1284.7 154.0, 1368.0 154.0" fill="none" stroke="#d55e00" stroke-opacity="0.30" stroke-width="12.0"><title>turn 6 Compilation error -> turn 7 Runtime error: 2</title></path>
<path d="M 1200.857142857143 205.0 C 1266.2 205.0, 1284.7 131.0, 1368.0 131.0" fill="none" stroke="#7b6fd6" stroke-opacity="0.30" stroke-width="6.0"><title>turn 6 Kernel Execution Timeout -> turn 7 Compilation error: 1</title></path>
<path d="M 1200.857142857143 211.0 C 1266.2 211.0, 1284.7 225.0, 1368.0 225.0" fill="none" stroke="#d33f49" stroke-opacity="0.30" stroke-width="6.0"><title>turn 6 Kernel Execution Timeout -> turn 7 Kernel Execution Timeout: 1</title></path>
<path d="M 1200.857142857143 225.0 C 1266.2 225.0, 1284.7 111.0, 1368.0 111.0" fill="none" stroke="#2a9d55" stroke-opacity="0.30" stroke-width="6.0"><title>turn 6 Numerical error -> turn 7 Correct: 1</title></path>
<path d="M 1200.857142857143 237.0 C 1266.2 237.0, 1284.7 251.0, 1368.0 251.0" fill="none" stroke="#e4a72b" stroke-opacity="0.30" stroke-width="18.0"><title>turn 6 Numerical error -> turn 7 Numerical error: 3</title></path>
<path d="M 1200.857142857143 249.0 C 1266.2 249.0, 1284.7 163.0, 1368.0 163.0" fill="none" stroke="#d55e00" stroke-opacity="0.30" stroke-width="6.0"><title>turn 6 Numerical error -> turn 7 Runtime error: 1</title></path>
<path d="M 1200.857142857143 137.0 C 1266.2 137.0, 1284.7 137.0, 1368.0 137.0" fill="none" stroke="#7b6fd6" stroke-opacity="0.30" stroke-width="6.0"><title>turn 6 Runtime error -> turn 7 Compilation error: 1</title></path>
<path d="M 1200.857142857143 143.0 C 1266.2 143.0, 1284.7 117.0, 1368.0 117.0" fill="none" stroke="#2a9d55" stroke-opacity="0.30" stroke-width="6.0"><title>turn 6 Runtime error -> turn 7 Correct: 1</title></path>
<path d="M 1200.857142857143 170.0 C 1266.2 170.0, 1284.7 190.0, 1368.0 190.0" fill="none" stroke="#d55e00" stroke-opacity="0.30" stroke-width="48.0"><title>turn 6 Runtime error -> turn 7 Runtime error: 8</title></path>
<text class="stage" x="60.0" y="76">turn 0</text>
<rect x="72.0" y="108.0" width="18" height="84.0" rx="3" fill="#7b6fd6"><title>Compilation error: 14</title></rect>
<text class="node-label" x="95.0" y="122.0" text-anchor="start">Compilation error (14)</text>
<rect x="72.0" y="200.0" width="18" height="24.0" rx="3" fill="#d55e00"><title>Runtime error: 4</title></rect>
<text class="node-label" x="95.0" y="214.0" text-anchor="start">Runtime error (4)</text>
<rect x="72.0" y="232.0" width="18" height="6.0" rx="3" fill="#d33f49"><title>Kernel Execution Timeout: 1</title></rect>
<text class="node-label" x="95.0" y="238.0" text-anchor="start">Kernel Execution Timeout (1)</text>
<rect x="72.0" y="246.0" width="18" height="6.0" rx="3" fill="#0f766e"><title>Extraction error: 1</title></rect>
<text class="node-label" x="95.0" y="252.0" text-anchor="start">Extraction error (1)</text>
<text class="stage" x="245.1" y="76">turn 1</text>
<rect x="257.1" y="108.0" width="18" height="72.0" rx="3" fill="#7b6fd6"><title>Compilation error: 12</title></rect>
<text class="node-label" x="280.1" y="122.0" text-anchor="start">Compilation error (12)</text>
<rect x="257.1" y="188.0" width="18" height="24.0" rx="3" fill="#d55e00"><title>Runtime error: 4</title></rect>
<text class="node-label" x="280.1" y="202.0" text-anchor="start">Runtime error (4)</text>
<rect x="257.1" y="220.0" width="18" height="12.0" rx="3" fill="#d33f49"><title>Kernel Execution Timeout: 2</title></rect>
<text class="node-label" x="280.1" y="232.0" text-anchor="start">Kernel Execution Timeout (2)</text>
<rect x="257.1" y="240.0" width="18" height="12.0" rx="3" fill="#e4a72b"><title>Numerical error: 2</title></rect>
<text class="node-label" x="280.1" y="252.0" text-anchor="start">Numerical error (2)</text>
<text class="stage" x="430.3" y="76">turn 2</text>
<rect x="442.3" y="108.0" width="18" height="6.0" rx="3" fill="#2a9d55"><title>Correct: 1</title></rect>
<text class="node-label" x="465.3" y="114.0" text-anchor="start">Correct (1)</text>
<rect x="442.3" y="122.0" width="18" height="30.0" rx="3" fill="#7b6fd6"><title>Compilation error: 5</title></rect>
<text class="node-label" x="465.3" y="136.0" text-anchor="start">Compilation error (5)</text>
<rect x="442.3" y="160.0" width="18" height="42.0" rx="3" fill="#d55e00"><title>Runtime error: 7</title></rect>
<text class="node-label" x="465.3" y="174.0" text-anchor="start">Runtime error (7)</text>
<rect x="442.3" y="210.0" width="18" height="12.0" rx="3" fill="#d33f49"><title>Kernel Execution Timeout: 2</title></rect>
<text class="node-label" x="465.3" y="222.0" text-anchor="start">Kernel Execution Timeout (2)</text>
<rect x="442.3" y="230.0" width="18" height="24.0" rx="3" fill="#e4a72b"><title>Numerical error: 4</title></rect>
<text class="node-label" x="465.3" y="244.0" text-anchor="start">Numerical error (4)</text>
<rect x="442.3" y="262.0" width="18" height="6.0" rx="3" fill="#0f766e"><title>Extraction error: 1</title></rect>
<text class="node-label" x="465.3" y="268.0" text-anchor="start">Extraction error (1)</text>
<text class="stage" x="615.4" y="76">turn 3</text>
<rect x="627.4" y="108.0" width="18" height="6.0" rx="3" fill="#2a9d55"><title>Correct: 1</title></rect>
<text class="node-label" x="650.4" y="114.0" text-anchor="start">Correct (1)</text>
<rect x="627.4" y="122.0" width="18" height="24.0" rx="3" fill="#7b6fd6"><title>Compilation error: 4</title></rect>
<text class="node-label" x="650.4" y="136.0" text-anchor="start">Compilation error (4)</text>
<rect x="627.4" y="154.0" width="18" height="54.0" rx="3" fill="#d55e00"><title>Runtime error: 9</title></rect>
<text class="node-label" x="650.4" y="168.0" text-anchor="start">Runtime error (9)</text>
<rect x="627.4" y="216.0" width="18" height="12.0" rx="3" fill="#d33f49"><title>Kernel Execution Timeout: 2</title></rect>
<text class="node-label" x="650.4" y="228.0" text-anchor="start">Kernel Execution Timeout (2)</text>
<rect x="627.4" y="236.0" width="18" height="18.0" rx="3" fill="#e4a72b"><title>Numerical error: 3</title></rect>
<text class="node-label" x="650.4" y="250.0" text-anchor="start">Numerical error (3)</text>
<rect x="627.4" y="262.0" width="18" height="6.0" rx="3" fill="#0f766e"><title>Extraction error: 1</title></rect>
<text class="node-label" x="650.4" y="268.0" text-anchor="start">Extraction error (1)</text>
<text class="stage" x="800.6" y="76">turn 4</text>
<rect x="812.6" y="108.0" width="18" height="6.0" rx="3" fill="#2a9d55"><title>Correct: 1</title></rect>
<text class="node-label" x="835.6" y="114.0" text-anchor="start">Correct (1)</text>
<rect x="812.6" y="122.0" width="18" height="18.0" rx="3" fill="#7b6fd6"><title>Compilation error: 3</title></rect>
<text class="node-label" x="835.6" y="136.0" text-anchor="start">Compilation error (3)</text>
<rect x="812.6" y="148.0" width="18" height="54.0" rx="3" fill="#d55e00"><title>Runtime error: 9</title></rect>
<text class="node-label" x="835.6" y="162.0" text-anchor="start">Runtime error (9)</text>
<rect x="812.6" y="210.0" width="18" height="42.0" rx="3" fill="#e4a72b"><title>Numerical error: 7</title></rect>
<text class="node-label" x="835.6" y="224.0" text-anchor="start">Numerical error (7)</text>
<text class="stage" x="985.7" y="76">turn 5</text>
<rect x="997.7" y="108.0" width="18" height="6.0" rx="3" fill="#2a9d55"><title>Correct: 1</title></rect>
<text class="node-label" x="1020.7" y="114.0" text-anchor="start">Correct (1)</text>
<rect x="997.7" y="122.0" width="18" height="36.0" rx="3" fill="#7b6fd6"><title>Compilation error: 6</title></rect>
<text class="node-label" x="1020.7" y="136.0" text-anchor="start">Compilation error (6)</text>
<rect x="997.7" y="166.0" width="18" height="24.0" rx="3" fill="#d55e00"><title>Runtime error: 4</title></rect>
<text class="node-label" x="1020.7" y="180.0" text-anchor="start">Runtime error (4)</text>
<rect x="997.7" y="198.0" width="18" height="12.0" rx="3" fill="#d33f49"><title>Kernel Execution Timeout: 2</title></rect>
<text class="node-label" x="1020.7" y="210.0" text-anchor="start">Kernel Execution Timeout (2)</text>
<rect x="997.7" y="218.0" width="18" height="36.0" rx="3" fill="#e4a72b"><title>Numerical error: 6</title></rect>
<text class="node-label" x="1020.7" y="232.0" text-anchor="start">Numerical error (6)</text>
<rect x="997.7" y="262.0" width="18" height="6.0" rx="3" fill="#0f766e"><title>Extraction error: 1</title></rect>
<text class="node-label" x="1020.7" y="268.0" text-anchor="start">Extraction error (1)</text>
<text class="stage" x="1170.9" y="76">turn 6</text>
<rect x="1182.9" y="108.0" width="18" height="18.0" rx="3" fill="#7b6fd6"><title>Compilation error: 3</title></rect>
<text class="node-label" x="1205.9" y="122.0" text-anchor="start">Compilation error (3)</text>
<rect x="1182.9" y="134.0" width="18" height="60.0" rx="3" fill="#d55e00"><title>Runtime error: 10</title></rect>
<text class="node-label" x="1205.9" y="148.0" text-anchor="start">Runtime error (10)</text>
<rect x="1182.9" y="202.0" width="18" height="12.0" rx="3" fill="#d33f49"><title>Kernel Execution Timeout: 2</title></rect>
<text class="node-label" x="1205.9" y="214.0" text-anchor="start">Kernel Execution Timeout (2)</text>
<rect x="1182.9" y="222.0" width="18" height="30.0" rx="3" fill="#e4a72b"><title>Numerical error: 5</title></rect>
<text class="node-label" x="1205.9" y="236.0" text-anchor="start">Numerical error (5)</text>
<text class="stage" x="1356.0" y="76">turn 7</text>
<rect x="1368.0" y="108.0" width="18" height="12.0" rx="3" fill="#2a9d55"><title>Correct: 2</title></rect>
<text class="node-label" x="1361.0" y="120.0" text-anchor="end">Correct (2)</text>
<rect x="1368.0" y="128.0" width="18" height="12.0" rx="3" fill="#7b6fd6"><title>Compilation error: 2</title></rect>
<text class="node-label" x="1361.0" y="140.0" text-anchor="end">Compilation error (2)</text>
<rect x="1368.0" y="148.0" width="18" height="66.0" rx="3" fill="#d55e00"><title>Runtime error: 11</title></rect>
<text class="node-label" x="1361.0" y="162.0" text-anchor="end">Runtime error (11)</text>
<rect x="1368.0" y="222.0" width="18" height="6.0" rx="3" fill="#d33f49"><title>Kernel Execution Timeout: 1</title></rect>
<text class="node-label" x="1361.0" y="228.0" text-anchor="end">Kernel Execution Timeout (1)</text>
<rect x="1368.0" y="236.0" width="18" height="24.0" rx="3" fill="#e4a72b"><title>Numerical error: 4</title></rect>
<text class="node-label" x="1361.0" y="250.0" text-anchor="end">Numerical error (4)</text>
</svg>