<svg viewBox="0 0 1440 328" width="1440" height="328" xmlns="http://www.w3.org/2000/svg" role="img">
<style>text{font-family:Arial,sans-serif;fill:#1f2937}.small{font-size:12px}.title{font-size:18px;font-weight:700}.stage{font-size:13px;font-weight:700}.node-label{font-size:11px}</style>
<rect x="0" y="0" width="1440" height="328" fill="#ffffff"/>
<text class="title" x="24" y="30">Qwen3.6-27B / mha_with_lse_d128: turn-to-turn correctness flow</text>
<text class="small" x="24" y="52">Trajectories: 20; shared definition/prompt-tag subset</text>
<path d="M 90.0 144.0 C 155.3 144.0, 173.8 144.0, 257.1 144.0" fill="none" stroke="#7b6fd6" stroke-opacity="0.30" stroke-width="72.0"><title>turn 0 Compilation error -> turn 1 Compilation error: 12</title></path>
<path d="M 90.0 186.0 C 155.3 186.0, 173.8 220.0, 257.1 220.0" fill="none" stroke="#d33f49" stroke-opacity="0.30" stroke-width="12.0"><title>turn 0 Compilation error -> turn 1 Kernel Execution Timeout: 2</title></path>
<path d="M 90.0 195.0 C 155.3 195.0, 173.8 243.0, 257.1 243.0" fill="none" stroke="#e4a72b" stroke-opacity="0.30" stroke-width="6.0"><title>turn 0 Compilation error -> turn 1 Numerical error: 1</title></path>
<path d="M 90.0 204.0 C 155.3 204.0, 173.8 200.0, 257.1 200.0" fill="none" stroke="#d55e00" stroke-opacity="0.30" stroke-width="12.0"><title>turn 0 Compilation error -> turn 1 Runtime error: 2</title></path>
<path d="M 90.0 221.0 C 155.3 221.0, 173.8 183.0, 257.1 183.0" fill="none" stroke="#7b6fd6" stroke-opacity="0.30" stroke-width="6.0"><title>turn 0 Extraction error -> turn 1 Compilation error: 1</title></path>
<path d="M 90.0 227.0 C 155.3 227.0, 173.8 257.0, 257.1 257.0" fill="none" stroke="#0f766e" stroke-opacity="0.30" stroke-width="6.0"><title>turn 0 Extraction error -> turn 1 Extraction error: 1</title></path>
<path d="M 90.0 241.0 C 155.3 241.0, 173.8 229.0, 257.1 229.0" fill="none" stroke="#d33f49" stroke-opacity="0.30" stroke-width="6.0"><title>turn 0 Profiling Service Timeout -> turn 1 Kernel Execution Timeout: 1</title></path>
<path d="M 275.1428571428571 132.0 C 340.5 132.0, 359.0 132.0, 442.3 132.0" fill="none" stroke="#7b6fd6" stroke-opacity="0.30" stroke-width="48.0"><title>turn 1 Compilation error -> turn 2 Compilation error: 8</title></path>
<path d="M 275.1428571428571 159.0 C 340.5 159.0, 359.0 223.0, 442.3 223.0" fill="none" stroke="#d33f49" stroke-opacity="0.30" stroke-width="6.0"><title>turn 1 Compilation error -> turn 2 Kernel Execution Timeout: 1</title></path>
<path d="M 275.1428571428571 168.0 C 340.5 168.0, 359.0 240.0, 442.3 240.0" fill="none" stroke="#e4a72b" stroke-opacity="0.30" stroke-width="12.0"><title>turn 1 Compilation error -> turn 2 Numerical error: 2</title></path>
<path d="M 275.1428571428571 180.0 C 340.5 180.0, 359.0 194.0, 442.3 194.0" fill="none" stroke="#d55e00" stroke-opacity="0.30" stroke-width="12.0"><title>turn 1 Compilation error -> turn 2 Runtime error: 2</title></path>
<path d="M 275.1428571428571 257.0 C 340.5 257.0, 359.0 203.0, 442.3 203.0" fill="none" stroke="#d55e00" stroke-opacity="0.30" stroke-width="6.0"><title>turn 1 Extraction error -> turn 2 Runtime error: 1</title></path>
<path d="M 275.1428571428571 220.0 C 340.5 220.0, 359.0 162.0, 442.3 162.0" fill="none" stroke="#7b6fd6" stroke-opacity="0.30" stroke-width="12.0"><title>turn 1 Kernel Execution Timeout -> turn 2 Compilation error: 2</title></path>
<path d="M 275.1428571428571 229.0 C 340.5 229.0, 359.0 257.0, 442.3 257.0" fill="none" stroke="#6b7280" stroke-opacity="0.30" stroke-width="6.0"><title>turn 1 Kernel Execution Timeout -> turn 2 Other error: 1</title></path>
<path d="M 275.1428571428571 243.0 C 340.5 243.0, 359.0 171.0, 442.3 171.0" fill="none" stroke="#7b6fd6" stroke-opacity="0.30" stroke-width="6.0"><title>turn 1 Numerical error -> turn 2 Compilation error: 1</title></path>
<path d="M 275.1428571428571 197.0 C 340.5 197.0, 359.0 177.0, 442.3 177.0" fill="none" stroke="#7b6fd6" stroke-opacity="0.30" stroke-width="6.0"><title>turn 1 Runtime error -> turn 2 Compilation error: 1</title></path>
<path d="M 275.1428571428571 203.0 C 340.5 203.0, 359.0 209.0, 442.3 209.0" fill="none" stroke="#d55e00" stroke-opacity="0.30" stroke-width="6.0"><title>turn 1 Runtime error -> turn 2 Runtime error: 1</title></path>
<path d="M 460.2857142857143 126.0 C 525.6 126.0, 544.1 126.0, 627.4 126.0" fill="none" stroke="#7b6fd6" stroke-opacity="0.30" stroke-width="36.0"><title>turn 2 Compilation error -> turn 3 Compilation error: 6</title></path>
<path d="M 460.2857142857143 147.0 C 525.6 147.0, 544.1 249.0, 627.4 249.0" fill="none" stroke="#e4a72b" stroke-opacity="0.30" stroke-width="6.0"><title>turn 2 Compilation error -> turn 3 Numerical error: 1</title></path>
<path d="M 460.2857142857143 165.0 C 525.6 165.0, 544.1 197.0, 627.4 197.0" fill="none" stroke="#d55e00" stroke-opacity="0.30" stroke-width="30.0"><title>turn 2 Compilation error -> turn 3 Runtime error: 5</title></path>
<path d="M 460.2857142857143 223.0 C 525.6 223.0, 544.1 235.0, 627.4 235.0" fill="none" stroke="#d33f49" stroke-opacity="0.30" stroke-width="6.0"><title>turn 2 Kernel Execution Timeout -> turn 3 Kernel Execution Timeout: 1</title></path>
<path d="M 460.2857142857143 240.0 C 525.6 240.0, 544.1 150.0, 627.4 150.0" fill="none" stroke="#7b6fd6" stroke-opacity="0.30" stroke-width="12.0"><title>turn 2 Numerical error -> turn 3 Compilation error: 2</title></path>
<path d="M 460.2857142857143 257.0 C 525.6 257.0, 544.1 159.0, 627.4 159.0" fill="none" stroke="#7b6fd6" stroke-opacity="0.30" stroke-width="6.0"><title>turn 2 Other error -> turn 3 Compilation error: 1</title></path>
<path d="M 460.2857142857143 194.0 C 525.6 194.0, 544.1 168.0, 627.4 168.0" fill="none" stroke="#7b6fd6" stroke-opacity="0.30" stroke-width="12.0"><title>turn 2 Runtime error -> turn 3 Compilation error: 2</title></path>
<path d="M 460.2857142857143 206.0 C 525.6 206.0, 544.1 218.0, 627.4 218.0" fill="none" stroke="#d55e00" stroke-opacity="0.30" stroke-width="12.0"><title>turn 2 Runtime error -> turn 3 Runtime error: 2</title></path>
<path d="M 645.4285714285714 132.0 C 710.7 132.0, 729.3 132.0, 812.6 132.0" fill="none" stroke="#7b6fd6" stroke-opacity="0.30" stroke-width="48.0"><title>turn 3 Compilation error -> turn 4 Compilation error: 8</title></path>
<path d="M 645.4285714285714 165.0 C 710.7 165.0, 729.3 217.0, 812.6 217.0" fill="none" stroke="#d33f49" stroke-opacity="0.30" stroke-width="18.0"><title>turn 3 Compilation error -> turn 4 Kernel Execution Timeout: 3</title></path>
<path d="M 645.4285714285714 235.0 C 710.7 235.0, 729.3 229.0, 812.6 229.0" fill="none" stroke="#d33f49" stroke-opacity="0.30" stroke-width="6.0"><title>turn 3 Kernel Execution Timeout -> turn 4 Kernel Execution Timeout: 1</title></path>
<path d="M 645.4285714285714 249.0 C 710.7 249.0, 729.3 159.0, 812.6 159.0" fill="none" stroke="#7b6fd6" stroke-opacity="0.30" stroke-width="6.0"><title>turn 3 Numerical error -> turn 4 Compilation error: 1</title></path>
<path d="M 645.4285714285714 194.0 C 710.7 194.0, 729.3 174.0, 812.6 174.0" fill="none" stroke="#7b6fd6" stroke-opacity="0.30" stroke-width="24.0"><title>turn 3 Runtime error -> turn 4 Compilation error: 4</title></path>
<path d="M 645.4285714285714 209.0 C 710.7 209.0, 729.3 235.0, 812.6 235.0" fill="none" stroke="#d33f49" stroke-opacity="0.30" stroke-width="6.0"><title>turn 3 Runtime error -> turn 4 Kernel Execution Timeout: 1</title></path>
<path d="M 645.4285714285714 215.0 C 710.7 215.0, 729.3 249.0, 812.6 249.0" fill="none" stroke="#e4a72b" stroke-opacity="0.30" stroke-width="6.0"><title>turn 3 Runtime error -> turn 4 Numerical error: 1</title></path>
<path d="M 645.4285714285714 221.0 C 710.7 221.0, 729.3 197.0, 812.6 197.0" fill="none" stroke="#d55e00" stroke-opacity="0.30" stroke-width="6.0"><title>turn 3 Runtime error -> turn 4 Runtime error: 1</title></path>
<path d="M 830.5714285714286 132.0 C 895.9 132.0, 914.4 132.0, 997.7 132.0" fill="none" stroke="#7b6fd6" stroke-opacity="0.30" stroke-width="48.0"><title>turn 4 Compilation error -> turn 5 Compilation error: 8</title></path>
<path d="M 830.5714285714286 162.0 C 895.9 162.0, 914.4 220.0, 997.7 220.0" fill="none" stroke="#d33f49" stroke-opacity="0.30" stroke-width="12.0"><title>turn 4 Compilation error -> turn 5 Kernel Execution Timeout: 2</title></path>
<path d="M 830.5714285714286 171.0 C 895.9 171.0, 914.4 249.0, 997.7 249.0" fill="none" stroke="#e4a72b" stroke-opacity="0.30" stroke-width="6.0"><title>turn 4 Compilation error -> turn 5 Numerical error: 1</title></path>
<path d="M 830.5714285714286 180.0 C 895.9 180.0, 914.4 188.0, 997.7 188.0" fill="none" stroke="#d55e00" stroke-opacity="0.30" stroke-width="12.0"><title>turn 4 Compilation error -> turn 5 Runtime error: 2</title></path>
<path d="M 830.5714285714286 214.0 C 895.9 214.0, 914.4 162.0, 997.7 162.0" fill="none" stroke="#7b6fd6" stroke-opacity="0.30" stroke-width="12.0"><title>turn 4 Kernel Execution Timeout -> turn 5 Compilation error: 2</title></path>
<path d="M 830.5714285714286 226.0 C 895.9 226.0, 914.4 232.0, 997.7 232.0" fill="none" stroke="#d33f49" stroke-opacity="0.30" stroke-width="12.0"><title>turn 4 Kernel Execution Timeout -> turn 5 Kernel Execution Timeout: 2</title></path>
<path d="M 830.5714285714286 235.0 C 895.9 235.0, 914.4 197.0, 997.7 197.0" fill="none" stroke="#d55e00" stroke-opacity="0.30" stroke-width="6.0"><title>turn 4 Kernel Execution Timeout -> turn 5 Runtime error: 1</title></path>
<path d="M 830.5714285714286 249.0 C 895.9 249.0, 914.4 171.0, 997.7 171.0" fill="none" stroke="#7b6fd6" stroke-opacity="0.30" stroke-width="6.0"><title>turn 4 Numerical error -> turn 5 Compilation error: 1</title></path>
<path d="M 830.5714285714286 197.0 C 895.9 197.0, 914.4 203.0, 997.7 203.0" fill="none" stroke="#d55e00" stroke-opacity="0.30" stroke-width="6.0"><title>turn 4 Runtime error -> turn 5 Runtime error: 1</title></path>
<path d="M 1015.7142857142857 123.0 C 1081.0 123.0, 1099.5 123.0, 1182.9 123.0" fill="none" stroke="#7b6fd6" stroke-opacity="0.30" stroke-width="30.0"><title>turn 5 Compilation error -> turn 6 Compilation error: 5</title></path>
<path d="M 1015.7142857142857 147.0 C 1081.0 147.0, 1099.5 211.0, 1182.9 211.0" fill="none" stroke="#d33f49" stroke-opacity="0.30" stroke-width="18.0"><title>turn 5 Compilation error -> turn 6 Kernel Execution Timeout: 3</title></path>
<path d="M 1015.7142857142857 159.0 C 1081.0 159.0, 1099.5 237.0, 1182.9 237.0" fill="none" stroke="#e4a72b" stroke-opacity="0.30" stroke-width="6.0"><title>turn 5 Compilation error -> turn 6 Numerical error: 1</title></path>
<path d="M 1015.7142857142857 168.0 C 1081.0 168.0, 1099.5 164.0, 1182.9 164.0" fill="none" stroke="#d55e00" stroke-opacity="0.30" stroke-width="12.0"><title>turn 5 Compilation error -> turn 6 Runtime error: 2</title></path>
<path d="M 1015.7142857142857 217.0 C 1081.0 217.0, 1099.5 141.0, 1182.9 141.0" fill="none" stroke="#7b6fd6" stroke-opacity="0.30" stroke-width="6.0"><title>turn 5 Kernel Execution Timeout -> turn 6 Compilation error: 1</title></path>
<path d="M 1015.7142857142857 226.0 C 1081.0 226.0, 1099.5 246.0, 1182.9 246.0" fill="none" stroke="#e4a72b" stroke-opacity="0.30" stroke-width="12.0"><title>turn 5 Kernel Execution Timeout -> turn 6 Numerical error: 2</title></path>
<path d="M 1015.7142857142857 235.0 C 1081.0 235.0, 1099.5 173.0, 1182.9 173.0" fill="none" stroke="#d55e00" stroke-opacity="0.30" stroke-width="6.0"><title>turn 5 Kernel Execution Timeout -> turn 6 Runtime error: 1</title></path>
<path d="M 1015.7142857142857 249.0 C 1081.0 249.0, 1099.5 147.0, 1182.9 147.0" fill="none" stroke="#7b6fd6" stroke-opacity="0.30" stroke-width="6.0"><title>turn 5 Numerical error -> turn 6 Compilation error: 1</title></path>
<path d="M 1015.7142857142857 185.0 C 1081.0 185.0, 1099.5 223.0, 1182.9 223.0" fill="none" stroke="#d33f49" stroke-opacity="0.30" stroke-width="6.0"><title>turn 5 Runtime error -> turn 6 Kernel Execution Timeout: 1</title></path>
<path d="M 1015.7142857142857 197.0 C 1081.0 197.0, 1099.5 185.0, 1182.9 185.0" fill="none" stroke="#d55e00" stroke-opacity="0.30" stroke-width="18.0"><title>turn 5 Runtime error -> turn 6 Runtime error: 3</title></path>
<path d="M 1200.857142857143 126.0 C 1266.2 126.0, 1284.7 126.0, 1368.0 126.0" fill="none" stroke="#7b6fd6" stroke-opacity="0.30" stroke-width="36.0"><title>turn 6 Compilation error -> turn 7 Compilation error: 6</title></path>
<path d="M 1200.857142857143 147.0 C 1266.2 147.0, 1284.7 243.0, 1368.0 243.0" fill="none" stroke="#e4a72b" stroke-opacity="0.30" stroke-width="6.0"><title>turn 6 Compilation error -> turn 7 Numerical error: 1</title></path>
<path d="M 1200.857142857143 208.0 C 1266.2 208.0, 1284.7 208.0, 1368.0 208.0" fill="none" stroke="#d33f49" stroke-opacity="0.30" stroke-width="12.0"><title>turn 6 Kernel Execution Timeout -> turn 7 Kernel Execution Timeout: 2</title></path>
<path d="M 1200.857142857143 220.0 C 1266.2 220.0, 1284.7 158.0, 1368.0 158.0" fill="none" stroke="#d55e00" stroke-opacity="0.30" stroke-width="12.0"><title>turn 6 Kernel Execution Timeout -> turn 7 Runtime error: 2</title></path>
<path d="M 1200.857142857143 240.0 C 1266.2 240.0, 1284.7 220.0, 1368.0 220.0" fill="none" stroke="#d33f49" stroke-opacity="0.30" stroke-width="12.0"><title>turn 6 Numerical error -> turn 7 Kernel Execution Timeout: 2</title></path>
<path d="M 1200.857142857143 249.0 C 1266.2 249.0, 1284.7 249.0, 1368.0 249.0" fill="none" stroke="#e4a72b" stroke-opacity="0.30" stroke-width="6.0"><title>turn 6 Numerical error -> turn 7 Numerical error: 1</title></path>
<path d="M 1200.857142857143 161.0 C 1266.2 161.0, 1284.7 229.0, 1368.0 229.0" fill="none" stroke="#d33f49" stroke-opacity="0.30" stroke-width="6.0"><title>turn 6 Runtime error -> turn 7 Kernel Execution Timeout: 1</title></path>
<path d="M 1200.857142857143 179.0 C 1266.2 179.0, 1284.7 179.0, 1368.0 179.0" fill="none" stroke="#d55e00" stroke-opacity="0.30" stroke-width="30.0"><title>turn 6 Runtime error -> turn 7 Runtime error: 5</title></path>
<text class="stage" x="60.0" y="76">turn 0</text>
<rect x="72.0" y="108.0" width="18" height="102.0" rx="3" fill="#7b6fd6"><title>Compilation error: 17</title></rect>
<text class="node-label" x="95.0" y="122.0" text-anchor="start">Compilation error (17)</text>
<rect x="72.0" y="218.0" width="18" height="12.0" rx="3" fill="#0f766e"><title>Extraction error: 2</title></rect>
<text class="node-label" x="95.0" y="230.0" text-anchor="start">Extraction error (2)</text>
<rect x="72.0" y="238.0" width="18" height="6.0" rx="3" fill="#9333ea"><title>Profiling Service Timeout: 1</title></rect>
<text class="node-label" x="95.0" y="244.0" text-anchor="start">Profiling Service Timeout (1)</text>
<text class="stage" x="245.1" y="76">turn 1</text>
<rect x="257.1" y="108.0" width="18" height="78.0" rx="3" fill="#7b6fd6"><title>Compilation error: 13</title></rect>
<text class="node-label" x="280.1" y="122.0" text-anchor="start">Compilation error (13)</text>
<rect x="257.1" y="194.0" width="18" height="12.0" rx="3" fill="#d55e00"><title>Runtime error: 2</title></rect>
<text class="node-label" x="280.1" y="206.0" text-anchor="start">Runtime error (2)</text>
<rect x="257.1" y="214.0" width="18" height="18.0" rx="3" fill="#d33f49"><title>Kernel Execution Timeout: 3</title></rect>
<text class="node-label" x="280.1" y="228.0" text-anchor="start">Kernel Execution Timeout (3)</text>
<rect x="257.1" y="240.0" width="18" height="6.0" rx="3" fill="#e4a72b"><title>Numerical error: 1</title></rect>
<text class="node-label" x="280.1" y="246.0" text-anchor="start">Numerical error (1)</text>
<rect x="257.1" y="254.0" width="18" height="6.0" rx="3" fill="#0f766e"><title>Extraction error: 1</title></rect>
<text class="node-label" x="280.1" y="260.0" text-anchor="start">Extraction error (1)</text>
<text class="stage" x="430.3" y="76">turn 2</text>
<rect x="442.3" y="108.0" width="18" height="72.0" rx="3" fill="#7b6fd6"><title>Compilation error: 12</title></rect>
<text class="node-label" x="465.3" y="122.0" text-anchor="start">Compilation error (12)</text>
<rect x="442.3" y="188.0" width="18" height="24.0" rx="3" fill="#d55e00"><title>Runtime error: 4</title></rect>
<text class="node-label" x="465.3" y="202.0" text-anchor="start">Runtime error (4)</text>
<rect x="442.3" y="220.0" width="18" height="6.0" rx="3" fill="#d33f49"><title>Kernel Execution Timeout: 1</title></rect>
<text class="node-label" x="465.3" y="226.0" text-anchor="start">Kernel Execution Timeout (1)</text>
<rect x="442.3" y="234.0" width="18" height="12.0" rx="3" fill="#e4a72b"><title>Numerical error: 2</title></rect>
<text class="node-label" x="465.3" y="246.0" text-anchor="start">Numerical error (2)</text>
<rect x="442.3" y="254.0" width="18" height="6.0" rx="3" fill="#6b7280"><title>Other error: 1</title></rect>
<text class="node-label" x="465.3" y="260.0" text-anchor="start">Other error (1)</text>
<text class="stage" x="615.4" y="76">turn 3</text>
<rect x="627.4" y="108.0" width="18" height="66.0" rx="3" fill="#7b6fd6"><title>Compilation error: 11</title></rect>
<text class="node-label" x="650.4" y="122.0" text-anchor="start">Compilation error (11)</text>
<rect x="627.4" y="182.0" width="18" height="42.0" rx="3" fill="#d55e00"><title>Runtime error: 7</title></rect>
<text class="node-label" x="650.4" y="196.0" text-anchor="start">Runtime error (7)</text>
<rect x="627.4" y="232.0" width="18" height="6.0" rx="3" fill="#d33f49"><title>Kernel Execution Timeout: 1</title></rect>
<text class="node-label" x="650.4" y="238.0" text-anchor="start">Kernel Execution Timeout (1)</text>
<rect x="627.4" y="246.0" width="18" height="6.0" rx="3" fill="#e4a72b"><title>Numerical error: 1</title></rect>
<text class="node-label" x="650.4" y="252.0" text-anchor="start">Numerical error (1)</text>
<text class="stage" x="800.6" y="76">turn 4</text>
<rect x="812.6" y="108.0" width="18" height="78.0" rx="3" fill="#7b6fd6"><title>Compilation error: 13</title></rect>
<text class="node-label" x="835.6" y="122.0" text-anchor="start">Compilation error (13)</text>
<rect x="812.6" y="194.0" width="18" height="6.0" rx="3" fill="#d55e00"><title>Runtime error: 1</title></rect>
<text class="node-label" x="835.6" y="200.0" text-anchor="start">Runtime error (1)</text>
<rect x="812.6" y="208.0" width="18" height="30.0" rx="3" fill="#d33f49"><title>Kernel Execution Timeout: 5</title></rect>
<text class="node-label" x="835.6" y="222.0" text-anchor="start">Kernel Execution Timeout (5)</text>
<rect x="812.6" y="246.0" width="18" height="6.0" rx="3" fill="#e4a72b"><title>Numerical error: 1</title></rect>
<text class="node-label" x="835.6" y="252.0" text-anchor="start">Numerical error (1)</text>
<text class="stage" x="985.7" y="76">turn 5</text>
<rect x="997.7" y="108.0" width="18" height="66.0" rx="3" fill="#7b6fd6"><title>Compilation error: 11</title></rect>
<text class="node-label" x="1020.7" y="122.0" text-anchor="start">Compilation error (11)</text>
<rect x="997.7" y="182.0" width="18" height="24.0" rx="3" fill="#d55e00"><title>Runtime error: 4</title></rect>
<text class="node-label" x="1020.7" y="196.0" text-anchor="start">Runtime error (4)</text>
<rect x="997.7" y="214.0" width="18" height="24.0" rx="3" fill="#d33f49"><title>Kernel Execution Timeout: 4</title></rect>
<text class="node-label" x="1020.7" y="228.0" text-anchor="start">Kernel Execution Timeout (4)</text>
<rect x="997.7" y="246.0" width="18" height="6.0" rx="3" fill="#e4a72b"><title>Numerical error: 1</title></rect>
<text class="node-label" x="1020.7" y="252.0" text-anchor="start">Numerical error (1)</text>
<text class="stage" x="1170.9" y="76">turn 6</text>
<rect x="1182.9" y="108.0" width="18" height="42.0" rx="3" fill="#7b6fd6"><title>Compilation error: 7</title></rect>
<text class="node-label" x="1205.9" y="122.0" text-anchor="start">Compilation error (7)</text>
<rect x="1182.9" y="158.0" width="18" height="36.0" rx="3" fill="#d55e00"><title>Runtime error: 6</title></rect>
<text class="node-label" x="1205.9" y="172.0" text-anchor="start">Runtime error (6)</text>
<rect x="1182.9" y="202.0" width="18" height="24.0" rx="3" fill="#d33f49"><title>Kernel Execution Timeout: 4</title></rect>
<text class="node-label" x="1205.9" y="216.0" text-anchor="start">Kernel Execution Timeout (4)</text>
<rect x="1182.9" y="234.0" width="18" height="18.0" rx="3" fill="#e4a72b"><title>Numerical error: 3</title></rect>
<text class="node-label" x="1205.9" y="248.0" text-anchor="start">Numerical error (3)</text>
<text class="stage" x="1356.0" y="76">turn 7</text>
<rect x="1368.0" y="108.0" width="18" height="36.0" rx="3" fill="#7b6fd6"><title>Compilation error: 6</title></rect>
<text class="node-label" x="1361.0" y="122.0" text-anchor="end">Compilation error (6)</text>
<rect x="1368.0" y="152.0" width="18" height="42.0" rx="3" fill="#d55e00"><title>Runtime error: 7</title></rect>
<text class="node-label" x="1361.0" y="166.0" text-anchor="end">Runtime error (7)</text>
<rect x="1368.0" y="202.0" width="18" height="30.0" rx="3" fill="#d33f49"><title>Kernel Execution Timeout: 5</title></rect>
<text class="node-label" x="1361.0" y="216.0" text-anchor="end">Kernel Execution Timeout (5)</text>
<rect x="1368.0" y="240.0" width="18" height="12.0" rx="3" fill="#e4a72b"><title>Numerical error: 2</title></rect>
<text class="node-label" x="1361.0" y="252.0" text-anchor="end">Numerical error (2)</text>
</svg>