<svg viewBox="0 0 1440 328" width="1440" height="328" xmlns="http://www.w3.org/2000/svg" role="img">
<style>text{font-family:Arial,sans-serif;fill:#1f2937}.small{font-size:12px}.title{font-size:18px;font-weight:700}.stage{font-size:13px;font-weight:700}.node-label{font-size:11px}</style>
<rect x="0" y="0" width="1440" height="328" fill="#ffffff"/>
<text class="title" x="24" y="30">Qwen3.6-27B / mha_with_lse_d128_causal: turn-to-turn correctness flow</text>
<text class="small" x="24" y="52">Trajectories: 20; shared definition/prompt-tag subset</text>
<path d="M 90.0 153.0 C 155.3 153.0, 173.8 153.0, 257.1 153.0" fill="none" stroke="#7b6fd6" stroke-opacity="0.30" stroke-width="90.0"><title>turn 0 Compilation error -> turn 1 Compilation error: 15</title></path>
<path d="M 90.0 204.0 C 155.3 204.0, 173.8 238.0, 257.1 238.0" fill="none" stroke="#e4a72b" stroke-opacity="0.30" stroke-width="12.0"><title>turn 0 Compilation error -> turn 1 Numerical error: 2</title></path>
<path d="M 90.0 216.0 C 155.3 216.0, 173.8 218.0, 257.1 218.0" fill="none" stroke="#d55e00" stroke-opacity="0.30" stroke-width="12.0"><title>turn 0 Compilation error -> turn 1 Runtime error: 2</title></path>
<path d="M 90.0 233.0 C 155.3 233.0, 173.8 201.0, 257.1 201.0" fill="none" stroke="#7b6fd6" stroke-opacity="0.30" stroke-width="6.0"><title>turn 0 Extraction error -> turn 1 Compilation error: 1</title></path>
<path d="M 275.1428571428571 132.0 C 340.5 132.0, 359.0 132.0, 442.3 132.0" fill="none" stroke="#7b6fd6" stroke-opacity="0.30" stroke-width="48.0"><title>turn 1 Compilation error -> turn 2 Compilation error: 8</title></path>
<path d="M 275.1428571428571 162.0 C 340.5 162.0, 359.0 214.0, 442.3 214.0" fill="none" stroke="#d33f49" stroke-opacity="0.30" stroke-width="12.0"><title>turn 1 Compilation error -> turn 2 Kernel Execution Timeout: 2</title></path>
<path d="M 275.1428571428571 174.0 C 340.5 174.0, 359.0 234.0, 442.3 234.0" fill="none" stroke="#e4a72b" stroke-opacity="0.30" stroke-width="12.0"><title>turn 1 Compilation error -> turn 2 Numerical error: 2</title></path>
<path d="M 275.1428571428571 192.0 C 340.5 192.0, 359.0 182.0, 442.3 182.0" fill="none" stroke="#d55e00" stroke-opacity="0.30" stroke-width="24.0"><title>turn 1 Compilation error -> turn 2 Runtime error: 4</title></path>
<path d="M 275.1428571428571 235.0 C 340.5 235.0, 359.0 257.0, 442.3 257.0" fill="none" stroke="#0f766e" stroke-opacity="0.30" stroke-width="6.0"><title>turn 1 Numerical error -> turn 2 Extraction error: 1</title></path>
<path d="M 275.1428571428571 241.0 C 340.5 241.0, 359.0 243.0, 442.3 243.0" fill="none" stroke="#e4a72b" stroke-opacity="0.30" stroke-width="6.0"><title>turn 1 Numerical error -> turn 2 Numerical error: 1</title></path>
<path d="M 275.1428571428571 215.0 C 340.5 215.0, 359.0 159.0, 442.3 159.0" fill="none" stroke="#7b6fd6" stroke-opacity="0.30" stroke-width="6.0"><title>turn 1 Runtime error -> turn 2 Compilation error: 1</title></path>
<path d="M 275.1428571428571 221.0 C 340.5 221.0, 359.0 197.0, 442.3 197.0" fill="none" stroke="#d55e00" stroke-opacity="0.30" stroke-width="6.0"><title>turn 1 Runtime error -> turn 2 Runtime error: 1</title></path>
<path d="M 460.2857142857143 129.0 C 525.6 129.0, 544.1 129.0, 627.4 129.0" fill="none" stroke="#7b6fd6" stroke-opacity="0.30" stroke-width="42.0"><title>turn 2 Compilation error -> turn 3 Compilation error: 7</title></path>
<path d="M 460.2857142857143 153.0 C 525.6 153.0, 544.1 211.0, 627.4 211.0" fill="none" stroke="#d33f49" stroke-opacity="0.30" stroke-width="6.0"><title>turn 2 Compilation error -> turn 3 Kernel Execution Timeout: 1</title></path>
<path d="M 460.2857142857143 159.0 C 525.6 159.0, 544.1 231.0, 627.4 231.0" fill="none" stroke="#e4a72b" stroke-opacity="0.30" stroke-width="6.0"><title>turn 2 Compilation error -> turn 3 Numerical error: 1</title></path>
<path d="M 460.2857142857143 257.0 C 525.6 257.0, 544.1 153.0, 627.4 153.0" fill="none" stroke="#7b6fd6" stroke-opacity="0.30" stroke-width="6.0"><title>turn 2 Extraction error -> turn 3 Compilation error: 1</title></path>
<path d="M 460.2857142857143 211.0 C 525.6 211.0, 544.1 159.0, 627.4 159.0" fill="none" stroke="#7b6fd6" stroke-opacity="0.30" stroke-width="6.0"><title>turn 2 Kernel Execution Timeout -> turn 3 Compilation error: 1</title></path>
<path d="M 460.2857142857143 217.0 C 525.6 217.0, 544.1 191.0, 627.4 191.0" fill="none" stroke="#d55e00" stroke-opacity="0.30" stroke-width="6.0"><title>turn 2 Kernel Execution Timeout -> turn 3 Runtime error: 1</title></path>
<path d="M 460.2857142857143 231.0 C 525.6 231.0, 544.1 165.0, 627.4 165.0" fill="none" stroke="#7b6fd6" stroke-opacity="0.30" stroke-width="6.0"><title>turn 2 Numerical error -> turn 3 Compilation error: 1</title></path>
<path d="M 460.2857142857143 237.0 C 525.6 237.0, 544.1 237.0, 627.4 237.0" fill="none" stroke="#e4a72b" stroke-opacity="0.30" stroke-width="6.0"><title>turn 2 Numerical error -> turn 3 Numerical error: 1</title></path>
<path d="M 460.2857142857143 243.0 C 525.6 243.0, 544.1 265.0, 627.4 265.0" fill="none" stroke="#6b7280" stroke-opacity="0.30" stroke-width="6.0"><title>turn 2 Numerical error -> turn 3 Other error: 1</title></path>
<path d="M 460.2857142857143 176.0 C 525.6 176.0, 544.1 174.0, 627.4 174.0" fill="none" stroke="#7b6fd6" stroke-opacity="0.30" stroke-width="12.0"><title>turn 2 Runtime error -> turn 3 Compilation error: 2</title></path>
<path d="M 460.2857142857143 185.0 C 525.6 185.0, 544.1 251.0, 627.4 251.0" fill="none" stroke="#0f766e" stroke-opacity="0.30" stroke-width="6.0"><title>turn 2 Runtime error -> turn 3 Extraction error: 1</title></path>
<path d="M 460.2857142857143 191.0 C 525.6 191.0, 544.1 217.0, 627.4 217.0" fill="none" stroke="#d33f49" stroke-opacity="0.30" stroke-width="6.0"><title>turn 2 Runtime error -> turn 3 Kernel Execution Timeout: 1</title></path>
<path d="M 460.2857142857143 197.0 C 525.6 197.0, 544.1 197.0, 627.4 197.0" fill="none" stroke="#d55e00" stroke-opacity="0.30" stroke-width="6.0"><title>turn 2 Runtime error -> turn 3 Runtime error: 1</title></path>
<path d="M 645.4285714285714 129.0 C 710.7 129.0, 729.3 129.0, 812.6 129.0" fill="none" stroke="#7b6fd6" stroke-opacity="0.30" stroke-width="42.0"><title>turn 3 Compilation error -> turn 4 Compilation error: 7</title></path>
<path d="M 645.4285714285714 156.0 C 710.7 156.0, 729.3 254.0, 812.6 254.0" fill="none" stroke="#0f766e" stroke-opacity="0.30" stroke-width="12.0"><title>turn 3 Compilation error -> turn 4 Extraction error: 2</title></path>
<path d="M 645.4285714285714 168.0 C 710.7 168.0, 729.3 214.0, 812.6 214.0" fill="none" stroke="#d33f49" stroke-opacity="0.30" stroke-width="12.0"><title>turn 3 Compilation error -> turn 4 Kernel Execution Timeout: 2</title></path>
<path d="M 645.4285714285714 177.0 C 710.7 177.0, 729.3 191.0, 812.6 191.0" fill="none" stroke="#d55e00" stroke-opacity="0.30" stroke-width="6.0"><title>turn 3 Compilation error -> turn 4 Runtime error: 1</title></path>
<path d="M 645.4285714285714 251.0 C 710.7 251.0, 729.3 197.0, 812.6 197.0" fill="none" stroke="#d55e00" stroke-opacity="0.30" stroke-width="6.0"><title>turn 3 Extraction error -> turn 4 Runtime error: 1</title></path>
<path d="M 645.4285714285714 211.0 C 710.7 211.0, 729.3 153.0, 812.6 153.0" fill="none" stroke="#7b6fd6" stroke-opacity="0.30" stroke-width="6.0"><title>turn 3 Kernel Execution Timeout -> turn 4 Compilation error: 1</title></path>
<path d="M 645.4285714285714 217.0 C 710.7 217.0, 729.3 223.0, 812.6 223.0" fill="none" stroke="#d33f49" stroke-opacity="0.30" stroke-width="6.0"><title>turn 3 Kernel Execution Timeout -> turn 4 Kernel Execution Timeout: 1</title></path>
<path d="M 645.4285714285714 231.0 C 710.7 231.0, 729.3 159.0, 812.6 159.0" fill="none" stroke="#7b6fd6" stroke-opacity="0.30" stroke-width="6.0"><title>turn 3 Numerical error -> turn 4 Compilation error: 1</title></path>
<path d="M 645.4285714285714 237.0 C 710.7 237.0, 729.3 237.0, 812.6 237.0" fill="none" stroke="#e4a72b" stroke-opacity="0.30" stroke-width="6.0"><title>turn 3 Numerical error -> turn 4 Numerical error: 1</title></path>
<path d="M 645.4285714285714 265.0 C 710.7 265.0, 729.3 165.0, 812.6 165.0" fill="none" stroke="#7b6fd6" stroke-opacity="0.30" stroke-width="6.0"><title>turn 3 Other error -> turn 4 Compilation error: 1</title></path>
<path d="M 645.4285714285714 194.0 C 710.7 194.0, 729.3 174.0, 812.6 174.0" fill="none" stroke="#7b6fd6" stroke-opacity="0.30" stroke-width="12.0"><title>turn 3 Runtime error -> turn 4 Compilation error: 2</title></path>
<path d="M 830.5714285714286 135.0 C 895.9 135.0, 914.4 135.0, 997.7 135.0" fill="none" stroke="#7b6fd6" stroke-opacity="0.30" stroke-width="54.0"><title>turn 4 Compilation error -> turn 5 Compilation error: 9</title></path>
<path d="M 830.5714285714286 165.0 C 895.9 165.0, 914.4 237.0, 997.7 237.0" fill="none" stroke="#e4a72b" stroke-opacity="0.30" stroke-width="6.0"><title>turn 4 Compilation error -> turn 5 Numerical error: 1</title></path>
<path d="M 830.5714285714286 174.0 C 895.9 174.0, 914.4 200.0, 997.7 200.0" fill="none" stroke="#d55e00" stroke-opacity="0.30" stroke-width="12.0"><title>turn 4 Compilation error -> turn 5 Runtime error: 2</title></path>
<path d="M 830.5714285714286 254.0 C 895.9 254.0, 914.4 168.0, 997.7 168.0" fill="none" stroke="#7b6fd6" stroke-opacity="0.30" stroke-width="12.0"><title>turn 4 Extraction error -> turn 5 Compilation error: 2</title></path>
<path d="M 830.5714285714286 214.0 C 895.9 214.0, 914.4 180.0, 997.7 180.0" fill="none" stroke="#7b6fd6" stroke-opacity="0.30" stroke-width="12.0"><title>turn 4 Kernel Execution Timeout -> turn 5 Compilation error: 2</title></path>
<path d="M 830.5714285714286 223.0 C 895.9 223.0, 914.4 223.0, 997.7 223.0" fill="none" stroke="#d33f49" stroke-opacity="0.30" stroke-width="6.0"><title>turn 4 Kernel Execution Timeout -> turn 5 Kernel Execution Timeout: 1</title></path>
<path d="M 830.5714285714286 237.0 C 895.9 237.0, 914.4 257.0, 997.7 257.0" fill="none" stroke="#0f766e" stroke-opacity="0.30" stroke-width="6.0"><title>turn 4 Numerical error -> turn 5 Extraction error: 1</title></path>
<path d="M 830.5714285714286 191.0 C 895.9 191.0, 914.4 243.0, 997.7 243.0" fill="none" stroke="#e4a72b" stroke-opacity="0.30" stroke-width="6.0"><title>turn 4 Runtime error -> turn 5 Numerical error: 1</title></path>
<path d="M 830.5714285714286 197.0 C 895.9 197.0, 914.4 209.0, 997.7 209.0" fill="none" stroke="#d55e00" stroke-opacity="0.30" stroke-width="6.0"><title>turn 4 Runtime error -> turn 5 Runtime error: 1</title></path>
<path d="M 1015.7142857142857 129.0 C 1081.0 129.0, 1099.5 129.0, 1182.9 129.0" fill="none" stroke="#7b6fd6" stroke-opacity="0.30" stroke-width="42.0"><title>turn 5 Compilation error -> turn 6 Compilation error: 7</title></path>
<path d="M 1015.7142857142857 159.0 C 1081.0 159.0, 1099.5 217.0, 1182.9 217.0" fill="none" stroke="#d33f49" stroke-opacity="0.30" stroke-width="18.0"><title>turn 5 Compilation error -> turn 6 Kernel Execution Timeout: 3</title></path>
<path d="M 1015.7142857142857 174.0 C 1081.0 174.0, 1099.5 240.0, 1182.9 240.0" fill="none" stroke="#e4a72b" stroke-opacity="0.30" stroke-width="12.0"><title>turn 5 Compilation error -> turn 6 Numerical error: 2</title></path>
<path d="M 1015.7142857142857 183.0 C 1081.0 183.0, 1099.5 179.0, 1182.9 179.0" fill="none" stroke="#d55e00" stroke-opacity="0.30" stroke-width="6.0"><title>turn 5 Compilation error -> turn 6 Runtime error: 1</title></path>
<path d="M 1015.7142857142857 257.0 C 1081.0 257.0, 1099.5 249.0, 1182.9 249.0" fill="none" stroke="#e4a72b" stroke-opacity="0.30" stroke-width="6.0"><title>turn 5 Extraction error -> turn 6 Numerical error: 1</title></path>
<path d="M 1015.7142857142857 223.0 C 1081.0 223.0, 1099.5 153.0, 1182.9 153.0" fill="none" stroke="#7b6fd6" stroke-opacity="0.30" stroke-width="6.0"><title>turn 5 Kernel Execution Timeout -> turn 6 Compilation error: 1</title></path>
<path d="M 1015.7142857142857 240.0 C 1081.0 240.0, 1099.5 188.0, 1182.9 188.0" fill="none" stroke="#d55e00" stroke-opacity="0.30" stroke-width="12.0"><title>turn 5 Numerical error -> turn 6 Runtime error: 2</title></path>
<path d="M 1015.7142857142857 200.0 C 1081.0 200.0, 1099.5 162.0, 1182.9 162.0" fill="none" stroke="#7b6fd6" stroke-opacity="0.30" stroke-width="12.0"><title>turn 5 Runtime error -> turn 6 Compilation error: 2</title></path>
<path d="M 1015.7142857142857 209.0 C 1081.0 209.0, 1099.5 197.0, 1182.9 197.0" fill="none" stroke="#d55e00" stroke-opacity="0.30" stroke-width="6.0"><title>turn 5 Runtime error -> turn 6 Runtime error: 1</title></path>
<path d="M 1200.857142857143 123.0 C 1266.2 123.0, 1284.7 123.0, 1368.0 123.0" fill="none" stroke="#7b6fd6" stroke-opacity="0.30" stroke-width="30.0"><title>turn 6 Compilation error -> turn 7 Compilation error: 5</title></path>
<path d="M 1200.857142857143 147.0 C 1266.2 147.0, 1284.7 217.0, 1368.0 217.0" fill="none" stroke="#d33f49" stroke-opacity="0.30" stroke-width="18.0"><title>turn 6 Compilation error -> turn 7 Kernel Execution Timeout: 3</title></path>
<path d="M 1200.857142857143 162.0 C 1266.2 162.0, 1284.7 170.0, 1368.0 170.0" fill="none" stroke="#d55e00" stroke-opacity="0.30" stroke-width="12.0"><title>turn 6 Compilation error -> turn 7 Runtime error: 2</title></path>
<path d="M 1200.857142857143 214.0 C 1266.2 214.0, 1284.7 144.0, 1368.0 144.0" fill="none" stroke="#7b6fd6" stroke-opacity="0.30" stroke-width="12.0"><title>turn 6 Kernel Execution Timeout -> turn 7 Compilation error: 2</title></path>
<path d="M 1200.857142857143 223.0 C 1266.2 223.0, 1284.7 179.0, 1368.0 179.0" fill="none" stroke="#d55e00" stroke-opacity="0.30" stroke-width="6.0"><title>turn 6 Kernel Execution Timeout -> turn 7 Runtime error: 1</title></path>
<path d="M 1200.857142857143 237.0 C 1266.2 237.0, 1284.7 229.0, 1368.0 229.0" fill="none" stroke="#d33f49" stroke-opacity="0.30" stroke-width="6.0"><title>turn 6 Numerical error -> turn 7 Kernel Execution Timeout: 1</title></path>
<path d="M 1200.857142857143 243.0 C 1266.2 243.0, 1284.7 243.0, 1368.0 243.0" fill="none" stroke="#e4a72b" stroke-opacity="0.30" stroke-width="6.0"><title>turn 6 Numerical error -> turn 7 Numerical error: 1</title></path>
<path d="M 1200.857142857143 249.0 C 1266.2 249.0, 1284.7 185.0, 1368.0 185.0" fill="none" stroke="#d55e00" stroke-opacity="0.30" stroke-width="6.0"><title>turn 6 Numerical error -> turn 7 Runtime error: 1</title></path>
<path d="M 1200.857142857143 179.0 C 1266.2 179.0, 1284.7 153.0, 1368.0 153.0" fill="none" stroke="#7b6fd6" stroke-opacity="0.30" stroke-width="6.0"><title>turn 6 Runtime error -> turn 7 Compilation error: 1</title></path>
<path d="M 1200.857142857143 185.0 C 1266.2 185.0, 1284.7 249.0, 1368.0 249.0" fill="none" stroke="#e4a72b" stroke-opacity="0.30" stroke-width="6.0"><title>turn 6 Runtime error -> turn 7 Numerical error: 1</title></path>
<path d="M 1200.857142857143 194.0 C 1266.2 194.0, 1284.7 194.0, 1368.0 194.0" fill="none" stroke="#d55e00" stroke-opacity="0.30" stroke-width="12.0"><title>turn 6 Runtime error -> turn 7 Runtime error: 2</title></path>
<text class="stage" x="60.0" y="76">turn 0</text>
<rect x="72.0" y="108.0" width="18" height="114.0" rx="3" fill="#7b6fd6"><title>Compilation error: 19</title></rect>
<text class="node-label" x="95.0" y="122.0" text-anchor="start">Compilation error (19)</text>
<rect x="72.0" y="230.0" width="18" height="6.0" rx="3" fill="#0f766e"><title>Extraction error: 1</title></rect>
<text class="node-label" x="95.0" y="236.0" text-anchor="start">Extraction error (1)</text>
<text class="stage" x="245.1" y="76">turn 1</text>
<rect x="257.1" y="108.0" width="18" height="96.0" rx="3" fill="#7b6fd6"><title>Compilation error: 16</title></rect>
<text class="node-label" x="280.1" y="122.0" text-anchor="start">Compilation error (16)</text>
<rect x="257.1" y="212.0" width="18" height="12.0" rx="3" fill="#d55e00"><title>Runtime error: 2</title></rect>
<text class="node-label" x="280.1" y="224.0" text-anchor="start">Runtime error (2)</text>
<rect x="257.1" y="232.0" width="18" height="12.0" rx="3" fill="#e4a72b"><title>Numerical error: 2</title></rect>
<text class="node-label" x="280.1" y="244.0" text-anchor="start">Numerical error (2)</text>
<text class="stage" x="430.3" y="76">turn 2</text>
<rect x="442.3" y="108.0" width="18" height="54.0" rx="3" fill="#7b6fd6"><title>Compilation error: 9</title></rect>
<text class="node-label" x="465.3" y="122.0" text-anchor="start">Compilation error (9)</text>
<rect x="442.3" y="170.0" width="18" height="30.0" rx="3" fill="#d55e00"><title>Runtime error: 5</title></rect>
<text class="node-label" x="465.3" y="184.0" text-anchor="start">Runtime error (5)</text>
<rect x="442.3" y="208.0" width="18" height="12.0" rx="3" fill="#d33f49"><title>Kernel Execution Timeout: 2</title></rect>
<text class="node-label" x="465.3" y="220.0" text-anchor="start">Kernel Execution Timeout (2)</text>
<rect x="442.3" y="228.0" width="18" height="18.0" rx="3" fill="#e4a72b"><title>Numerical error: 3</title></rect>
<text class="node-label" x="465.3" y="242.0" text-anchor="start">Numerical error (3)</text>
<rect x="442.3" y="254.0" width="18" height="6.0" rx="3" fill="#0f766e"><title>Extraction error: 1</title></rect>
<text class="node-label" x="465.3" y="260.0" text-anchor="start">Extraction error (1)</text>
<text class="stage" x="615.4" y="76">turn 3</text>
<rect x="627.4" y="108.0" width="18" height="72.0" rx="3" fill="#7b6fd6"><title>Compilation error: 12</title></rect>
<text class="node-label" x="650.4" y="122.0" text-anchor="start">Compilation error (12)</text>
<rect x="627.4" y="188.0" width="18" height="12.0" rx="3" fill="#d55e00"><title>Runtime error: 2</title></rect>
<text class="node-label" x="650.4" y="200.0" text-anchor="start">Runtime error (2)</text>
<rect x="627.4" y="208.0" width="18" height="12.0" rx="3" fill="#d33f49"><title>Kernel Execution Timeout: 2</title></rect>
<text class="node-label" x="650.4" y="220.0" text-anchor="start">Kernel Execution Timeout (2)</text>
<rect x="627.4" y="228.0" width="18" height="12.0" rx="3" fill="#e4a72b"><title>Numerical error: 2</title></rect>
<text class="node-label" x="650.4" y="240.0" text-anchor="start">Numerical error (2)</text>
<rect x="627.4" y="248.0" width="18" height="6.0" rx="3" fill="#0f766e"><title>Extraction error: 1</title></rect>
<text class="node-label" x="650.4" y="254.0" text-anchor="start">Extraction error (1)</text>
<rect x="627.4" y="262.0" width="18" height="6.0" rx="3" fill="#6b7280"><title>Other error: 1</title></rect>
<text class="node-label" x="650.4" y="268.0" text-anchor="start">Other error (1)</text>
<text class="stage" x="800.6" y="76">turn 4</text>
<rect x="812.6" y="108.0" width="18" height="72.0" rx="3" fill="#7b6fd6"><title>Compilation error: 12</title></rect>
<text class="node-label" x="835.6" y="122.0" text-anchor="start">Compilation error (12)</text>
<rect x="812.6" y="188.0" width="18" height="12.0" rx="3" fill="#d55e00"><title>Runtime error: 2</title></rect>
<text class="node-label" x="835.6" y="200.0" text-anchor="start">Runtime error (2)</text>
<rect x="812.6" y="208.0" width="18" height="18.0" rx="3" fill="#d33f49"><title>Kernel Execution Timeout: 3</title></rect>
<text class="node-label" x="835.6" y="222.0" text-anchor="start">Kernel Execution Timeout (3)</text>
<rect x="812.6" y="234.0" width="18" height="6.0" rx="3" fill="#e4a72b"><title>Numerical error: 1</title></rect>
<text class="node-label" x="835.6" y="240.0" text-anchor="start">Numerical error (1)</text>
<rect x="812.6" y="248.0" width="18" height="12.0" rx="3" fill="#0f766e"><title>Extraction error: 2</title></rect>
<text class="node-label" x="835.6" y="260.0" text-anchor="start">Extraction error (2)</text>
<text class="stage" x="985.7" y="76">turn 5</text>
<rect x="997.7" y="108.0" width="18" height="78.0" rx="3" fill="#7b6fd6"><title>Compilation error: 13</title></rect>
<text class="node-label" x="1020.7" y="122.0" text-anchor="start">Compilation error (13)</text>
<rect x="997.7" y="194.0" width="18" height="18.0" rx="3" fill="#d55e00"><title>Runtime error: 3</title></rect>
<text class="node-label" x="1020.7" y="208.0" text-anchor="start">Runtime error (3)</text>
<rect x="997.7" y="220.0" width="18" height="6.0" rx="3" fill="#d33f49"><title>Kernel Execution Timeout: 1</title></rect>
<text class="node-label" x="1020.7" y="226.0" text-anchor="start">Kernel Execution Timeout (1)</text>
<rect x="997.7" y="234.0" width="18" height="12.0" rx="3" fill="#e4a72b"><title>Numerical error: 2</title></rect>
<text class="node-label" x="1020.7" y="246.0" text-anchor="start">Numerical error (2)</text>
<rect x="997.7" y="254.0" width="18" height="6.0" rx="3" fill="#0f766e"><title>Extraction error: 1</title></rect>
<text class="node-label" x="1020.7" y="260.0" text-anchor="start">Extraction error (1)</text>
<text class="stage" x="1170.9" y="76">turn 6</text>
<rect x="1182.9" y="108.0" width="18" height="60.0" rx="3" fill="#7b6fd6"><title>Compilation error: 10</title></rect>
<text class="node-label" x="1205.9" y="122.0" text-anchor="start">Compilation error (10)</text>
<rect x="1182.9" y="176.0" width="18" height="24.0" rx="3" fill="#d55e00"><title>Runtime error: 4</title></rect>
<text class="node-label" x="1205.9" y="190.0" text-anchor="start">Runtime error (4)</text>
<rect x="1182.9" y="208.0" width="18" height="18.0" rx="3" fill="#d33f49"><title>Kernel Execution Timeout: 3</title></rect>
<text class="node-label" x="1205.9" y="222.0" text-anchor="start">Kernel Execution Timeout (3)</text>
<rect x="1182.9" y="234.0" width="18" height="18.0" rx="3" fill="#e4a72b"><title>Numerical error: 3</title></rect>
<text class="node-label" x="1205.9" y="248.0" text-anchor="start">Numerical error (3)</text>
<text class="stage" x="1356.0" y="76">turn 7</text>
<rect x="1368.0" y="108.0" width="18" height="48.0" rx="3" fill="#7b6fd6"><title>Compilation error: 8</title></rect>
<text class="node-label" x="1361.0" y="122.0" text-anchor="end">Compilation error (8)</text>
<rect x="1368.0" y="164.0" width="18" height="36.0" rx="3" fill="#d55e00"><title>Runtime error: 6</title></rect>
<text class="node-label" x="1361.0" y="178.0" text-anchor="end">Runtime error (6)</text>
<rect x="1368.0" y="208.0" width="18" height="24.0" rx="3" fill="#d33f49"><title>Kernel Execution Timeout: 4</title></rect>
<text class="node-label" x="1361.0" y="222.0" text-anchor="end">Kernel Execution Timeout (4)</text>
<rect x="1368.0" y="240.0" width="18" height="12.0" rx="3" fill="#e4a72b"><title>Numerical error: 2</title></rect>
<text class="node-label" x="1361.0" y="252.0" text-anchor="end">Numerical error (2)</text>
</svg>