<svg viewBox="0 0 1440 328" width="1440" height="328" xmlns="http://www.w3.org/2000/svg" role="img">
<style>text{font-family:Arial,sans-serif;fill:#1f2937}.small{font-size:12px}.title{font-size:18px;font-weight:700}.stage{font-size:13px;font-weight:700}.node-label{font-size:11px}</style>
<rect x="0" y="0" width="1440" height="328" fill="#ffffff"/>
<text class="title" x="24" y="30">SFT v4 / mha_bwd_d128_causal: turn-to-turn correctness flow</text>
<text class="small" x="24" y="52">Trajectories: 20; shared definition/prompt-tag subset</text>
<path d="M 90.0 126.0 C 155.3 126.0, 173.8 126.0, 257.1 126.0" fill="none" stroke="#7b6fd6" stroke-opacity="0.30" stroke-width="36.0"><title>turn 0 Compilation error -> turn 1 Compilation error: 6</title></path>
<path d="M 90.0 150.0 C 155.3 150.0, 173.8 214.0, 257.1 214.0" fill="none" stroke="#d33f49" stroke-opacity="0.30" stroke-width="12.0"><title>turn 0 Compilation error -> turn 1 Kernel Execution Timeout: 2</title></path>
<path d="M 90.0 162.0 C 155.3 162.0, 173.8 234.0, 257.1 234.0" fill="none" stroke="#e4a72b" stroke-opacity="0.30" stroke-width="12.0"><title>turn 0 Compilation error -> turn 1 Numerical error: 2</title></path>
<path d="M 90.0 180.0 C 155.3 180.0, 173.8 176.0, 257.1 176.0" fill="none" stroke="#d55e00" stroke-opacity="0.30" stroke-width="24.0"><title>turn 0 Compilation error -> turn 1 Runtime error: 4</title></path>
<path d="M 90.0 257.0 C 155.3 257.0, 173.8 147.0, 257.1 147.0" fill="none" stroke="#7b6fd6" stroke-opacity="0.30" stroke-width="6.0"><title>turn 0 Extraction error -> turn 1 Compilation error: 1</title></path>
<path d="M 90.0 223.0 C 155.3 223.0, 173.8 191.0, 257.1 191.0" fill="none" stroke="#d55e00" stroke-opacity="0.30" stroke-width="6.0"><title>turn 0 Kernel Execution Timeout -> turn 1 Runtime error: 1</title></path>
<path d="M 90.0 240.0 C 155.3 240.0, 173.8 246.0, 257.1 246.0" fill="none" stroke="#e4a72b" stroke-opacity="0.30" stroke-width="12.0"><title>turn 0 Numerical error -> turn 1 Numerical error: 2</title></path>
<path d="M 90.0 203.0 C 155.3 203.0, 173.8 153.0, 257.1 153.0" fill="none" stroke="#7b6fd6" stroke-opacity="0.30" stroke-width="6.0"><title>turn 0 Runtime error -> turn 1 Compilation error: 1</title></path>
<path d="M 90.0 209.0 C 155.3 209.0, 173.8 197.0, 257.1 197.0" fill="none" stroke="#d55e00" stroke-opacity="0.30" stroke-width="6.0"><title>turn 0 Runtime error -> turn 1 Runtime error: 1</title></path>
<path d="M 275.1428571428571 120.0 C 340.5 120.0, 359.0 120.0, 442.3 120.0" fill="none" stroke="#7b6fd6" stroke-opacity="0.30" stroke-width="24.0"><title>turn 1 Compilation error -> turn 2 Compilation error: 4</title></path>
<path d="M 275.1428571428571 135.0 C 340.5 135.0, 359.0 229.0, 442.3 229.0" fill="none" stroke="#d33f49" stroke-opacity="0.30" stroke-width="6.0"><title>turn 1 Compilation error -> turn 2 Kernel Execution Timeout: 1</title></path>
<path d="M 275.1428571428571 147.0 C 340.5 147.0, 359.0 179.0, 442.3 179.0" fill="none" stroke="#d55e00" stroke-opacity="0.30" stroke-width="18.0"><title>turn 1 Compilation error -> turn 2 Runtime error: 3</title></path>
<path d="M 275.1428571428571 214.0 C 340.5 214.0, 359.0 138.0, 442.3 138.0" fill="none" stroke="#7b6fd6" stroke-opacity="0.30" stroke-width="12.0"><title>turn 1 Kernel Execution Timeout -> turn 2 Compilation error: 2</title></path>
<path d="M 275.1428571428571 234.0 C 340.5 234.0, 359.0 150.0, 442.3 150.0" fill="none" stroke="#7b6fd6" stroke-opacity="0.30" stroke-width="12.0"><title>turn 1 Numerical error -> turn 2 Compilation error: 2</title></path>
<path d="M 275.1428571428571 243.0 C 340.5 243.0, 359.0 235.0, 442.3 235.0" fill="none" stroke="#d33f49" stroke-opacity="0.30" stroke-width="6.0"><title>turn 1 Numerical error -> turn 2 Kernel Execution Timeout: 1</title></path>
<path d="M 275.1428571428571 249.0 C 340.5 249.0, 359.0 249.0, 442.3 249.0" fill="none" stroke="#e4a72b" stroke-opacity="0.30" stroke-width="6.0"><title>turn 1 Numerical error -> turn 2 Numerical error: 1</title></path>
<path d="M 275.1428571428571 167.0 C 340.5 167.0, 359.0 159.0, 442.3 159.0" fill="none" stroke="#7b6fd6" stroke-opacity="0.30" stroke-width="6.0"><title>turn 1 Runtime error -> turn 2 Compilation error: 1</title></path>
<path d="M 275.1428571428571 185.0 C 340.5 185.0, 359.0 203.0, 442.3 203.0" fill="none" stroke="#d55e00" stroke-opacity="0.30" stroke-width="30.0"><title>turn 1 Runtime error -> turn 2 Runtime error: 5</title></path>
<path d="M 460.2857142857143 120.0 C 525.6 120.0, 544.1 120.0, 627.4 120.0" fill="none" stroke="#7b6fd6" stroke-opacity="0.30" stroke-width="24.0"><title>turn 2 Compilation error -> turn 3 Compilation error: 4</title></path>
<path d="M 460.2857142857143 141.0 C 525.6 141.0, 544.1 217.0, 627.4 217.0" fill="none" stroke="#d33f49" stroke-opacity="0.30" stroke-width="18.0"><title>turn 2 Compilation error -> turn 3 Kernel Execution Timeout: 3</title></path>
<path d="M 460.2857142857143 153.0 C 525.6 153.0, 544.1 243.0, 627.4 243.0" fill="none" stroke="#e4a72b" stroke-opacity="0.30" stroke-width="6.0"><title>turn 2 Compilation error -> turn 3 Numerical error: 1</title></path>
<path d="M 460.2857142857143 159.0 C 525.6 159.0, 544.1 155.0, 627.4 155.0" fill="none" stroke="#d55e00" stroke-opacity="0.30" stroke-width="6.0"><title>turn 2 Compilation error -> turn 3 Runtime error: 1</title></path>
<path d="M 460.2857142857143 229.0 C 525.6 229.0, 544.1 135.0, 627.4 135.0" fill="none" stroke="#7b6fd6" stroke-opacity="0.30" stroke-width="6.0"><title>turn 2 Kernel Execution Timeout -> turn 3 Compilation error: 1</title></path>
<path d="M 460.2857142857143 235.0 C 525.6 235.0, 544.1 229.0, 627.4 229.0" fill="none" stroke="#d33f49" stroke-opacity="0.30" stroke-width="6.0"><title>turn 2 Kernel Execution Timeout -> turn 3 Kernel Execution Timeout: 1</title></path>
<path d="M 460.2857142857143 249.0 C 525.6 249.0, 544.1 249.0, 627.4 249.0" fill="none" stroke="#e4a72b" stroke-opacity="0.30" stroke-width="6.0"><title>turn 2 Numerical error -> turn 3 Numerical error: 1</title></path>
<path d="M 460.2857142857143 173.0 C 525.6 173.0, 544.1 141.0, 627.4 141.0" fill="none" stroke="#7b6fd6" stroke-opacity="0.30" stroke-width="6.0"><title>turn 2 Runtime error -> turn 3 Compilation error: 1</title></path>
<path d="M 460.2857142857143 197.0 C 525.6 197.0, 544.1 179.0, 627.4 179.0" fill="none" stroke="#d55e00" stroke-opacity="0.30" stroke-width="42.0"><title>turn 2 Runtime error -> turn 3 Runtime error: 7</title></path>
<path d="M 645.4285714285714 117.0 C 710.7 117.0, 729.3 117.0, 812.6 117.0" fill="none" stroke="#7b6fd6" stroke-opacity="0.30" stroke-width="18.0"><title>turn 3 Compilation error -> turn 4 Compilation error: 3</title></path>
<path d="M 645.4285714285714 129.0 C 710.7 129.0, 729.3 223.0, 812.6 223.0" fill="none" stroke="#d33f49" stroke-opacity="0.30" stroke-width="6.0"><title>turn 3 Compilation error -> turn 4 Kernel Execution Timeout: 1</title></path>
<path d="M 645.4285714285714 138.0 C 710.7 138.0, 729.3 158.0, 812.6 158.0" fill="none" stroke="#d55e00" stroke-opacity="0.30" stroke-width="12.0"><title>turn 3 Compilation error -> turn 4 Runtime error: 2</title></path>
<path d="M 645.4285714285714 214.0 C 710.7 214.0, 729.3 132.0, 812.6 132.0" fill="none" stroke="#7b6fd6" stroke-opacity="0.30" stroke-width="12.0"><title>turn 3 Kernel Execution Timeout -> turn 4 Compilation error: 2</title></path>
<path d="M 645.4285714285714 226.0 C 710.7 226.0, 729.3 232.0, 812.6 232.0" fill="none" stroke="#d33f49" stroke-opacity="0.30" stroke-width="12.0"><title>turn 3 Kernel Execution Timeout -> turn 4 Kernel Execution Timeout: 2</title></path>
<path d="M 645.4285714285714 243.0 C 710.7 243.0, 729.3 141.0, 812.6 141.0" fill="none" stroke="#7b6fd6" stroke-opacity="0.30" stroke-width="6.0"><title>turn 3 Numerical error -> turn 4 Compilation error: 1</title></path>
<path d="M 645.4285714285714 249.0 C 710.7 249.0, 729.3 249.0, 812.6 249.0" fill="none" stroke="#e4a72b" stroke-opacity="0.30" stroke-width="6.0"><title>turn 3 Numerical error -> turn 4 Numerical error: 1</title></path>
<path d="M 645.4285714285714 176.0 C 710.7 176.0, 729.3 188.0, 812.6 188.0" fill="none" stroke="#d55e00" stroke-opacity="0.30" stroke-width="48.0"><title>turn 3 Runtime error -> turn 4 Runtime error: 8</title></path>
<path d="M 830.5714285714286 117.0 C 895.9 117.0, 914.4 131.0, 997.7 131.0" fill="none" stroke="#7b6fd6" stroke-opacity="0.30" stroke-width="18.0"><title>turn 4 Compilation error -> turn 5 Compilation error: 3</title></path>
<path d="M 830.5714285714286 129.0 C 895.9 129.0, 914.4 111.0, 997.7 111.0" fill="none" stroke="#2a9d55" stroke-opacity="0.30" stroke-width="6.0"><title>turn 4 Compilation error -> turn 5 Correct: 1</title></path>
<path d="M 830.5714285714286 138.0 C 895.9 138.0, 914.4 242.0, 997.7 242.0" fill="none" stroke="#e4a72b" stroke-opacity="0.30" stroke-width="12.0"><title>turn 4 Compilation error -> turn 5 Numerical error: 2</title></path>
<path d="M 830.5714285714286 223.0 C 895.9 223.0, 914.4 143.0, 997.7 143.0" fill="none" stroke="#7b6fd6" stroke-opacity="0.30" stroke-width="6.0"><title>turn 4 Kernel Execution Timeout -> turn 5 Compilation error: 1</title></path>
<path d="M 830.5714285714286 232.0 C 895.9 232.0, 914.4 222.0, 997.7 222.0" fill="none" stroke="#d33f49" stroke-opacity="0.30" stroke-width="12.0"><title>turn 4 Kernel Execution Timeout -> turn 5 Kernel Execution Timeout: 2</title></path>
<path d="M 830.5714285714286 249.0 C 895.9 249.0, 914.4 251.0, 997.7 251.0" fill="none" stroke="#e4a72b" stroke-opacity="0.30" stroke-width="6.0"><title>turn 4 Numerical error -> turn 5 Numerical error: 1</title></path>
<path d="M 830.5714285714286 155.0 C 895.9 155.0, 914.4 257.0, 997.7 257.0" fill="none" stroke="#e4a72b" stroke-opacity="0.30" stroke-width="6.0"><title>turn 4 Runtime error -> turn 5 Numerical error: 1</title></path>
<path d="M 830.5714285714286 185.0 C 895.9 185.0, 914.4 181.0, 997.7 181.0" fill="none" stroke="#d55e00" stroke-opacity="0.30" stroke-width="54.0"><title>turn 4 Runtime error -> turn 5 Runtime error: 9</title></path>
<path d="M 1015.7142857142857 131.0 C 1081.0 131.0, 1099.5 117.0, 1182.9 117.0" fill="none" stroke="#7b6fd6" stroke-opacity="0.30" stroke-width="18.0"><title>turn 5 Compilation error -> turn 6 Compilation error: 3</title></path>
<path d="M 1015.7142857142857 143.0 C 1081.0 143.0, 1099.5 223.0, 1182.9 223.0" fill="none" stroke="#d33f49" stroke-opacity="0.30" stroke-width="6.0"><title>turn 5 Compilation error -> turn 6 Kernel Execution Timeout: 1</title></path>
<path d="M 1015.7142857142857 111.0 C 1081.0 111.0, 1099.5 129.0, 1182.9 129.0" fill="none" stroke="#7b6fd6" stroke-opacity="0.30" stroke-width="6.0"><title>turn 5 Correct -> turn 6 Compilation error: 1</title></path>
<path d="M 1015.7142857142857 222.0 C 1081.0 222.0, 1099.5 232.0, 1182.9 232.0" fill="none" stroke="#d33f49" stroke-opacity="0.30" stroke-width="12.0"><title>turn 5 Kernel Execution Timeout -> turn 6 Kernel Execution Timeout: 2</title></path>
<path d="M 1015.7142857142857 242.0 C 1081.0 242.0, 1099.5 138.0, 1182.9 138.0" fill="none" stroke="#7b6fd6" stroke-opacity="0.30" stroke-width="12.0"><title>turn 5 Numerical error -> turn 6 Compilation error: 2</title></path>
<path d="M 1015.7142857142857 251.0 C 1081.0 251.0, 1099.5 249.0, 1182.9 249.0" fill="none" stroke="#e4a72b" stroke-opacity="0.30" stroke-width="6.0"><title>turn 5 Numerical error -> turn 6 Numerical error: 1</title></path>
<path d="M 1015.7142857142857 257.0 C 1081.0 257.0, 1099.5 161.0, 1182.9 161.0" fill="none" stroke="#d55e00" stroke-opacity="0.30" stroke-width="6.0"><title>turn 5 Numerical error -> turn 6 Runtime error: 1</title></path>
<path d="M 1015.7142857142857 157.0 C 1081.0 157.0, 1099.5 147.0, 1182.9 147.0" fill="none" stroke="#7b6fd6" stroke-opacity="0.30" stroke-width="6.0"><title>turn 5 Runtime error -> turn 6 Compilation error: 1</title></path>
<path d="M 1015.7142857142857 184.0 C 1081.0 184.0, 1099.5 188.0, 1182.9 188.0" fill="none" stroke="#d55e00" stroke-opacity="0.30" stroke-width="48.0"><title>turn 5 Runtime error -> turn 6 Runtime error: 8</title></path>
<path d="M 1200.857142857143 117.0 C 1266.2 117.0, 1284.7 117.0, 1368.0 117.0" fill="none" stroke="#7b6fd6" stroke-opacity="0.30" stroke-width="18.0"><title>turn 6 Compilation error -> turn 7 Compilation error: 3</title></path>
<path d="M 1200.857142857143 129.0 C 1266.2 129.0, 1284.7 211.0, 1368.0 211.0" fill="none" stroke="#d33f49" stroke-opacity="0.30" stroke-width="6.0"><title>turn 6 Compilation error -> turn 7 Kernel Execution Timeout: 1</title></path>
<path d="M 1200.857142857143 135.0 C 1266.2 135.0, 1284.7 237.0, 1368.0 237.0" fill="none" stroke="#e4a72b" stroke-opacity="0.30" stroke-width="6.0"><title>turn 6 Compilation error -> turn 7 Numerical error: 1</title></path>
<path d="M 1200.857142857143 144.0 C 1266.2 144.0, 1284.7 152.0, 1368.0 152.0" fill="none" stroke="#d55e00" stroke-opacity="0.30" stroke-width="12.0"><title>turn 6 Compilation error -> turn 7 Runtime error: 2</title></path>
<path d="M 1200.857142857143 226.0 C 1266.2 226.0, 1284.7 220.0, 1368.0 220.0" fill="none" stroke="#d33f49" stroke-opacity="0.30" stroke-width="12.0"><title>turn 6 Kernel Execution Timeout -> turn 7 Kernel Execution Timeout: 2</title></path>
<path d="M 1200.857142857143 235.0 C 1266.2 235.0, 1284.7 243.0, 1368.0 243.0" fill="none" stroke="#e4a72b" stroke-opacity="0.30" stroke-width="6.0"><title>turn 6 Kernel Execution Timeout -> turn 7 Numerical error: 1</title></path>
<path d="M 1200.857142857143 249.0 C 1266.2 249.0, 1284.7 129.0, 1368.0 129.0" fill="none" stroke="#7b6fd6" stroke-opacity="0.30" stroke-width="6.0"><title>turn 6 Numerical error -> turn 7 Compilation error: 1</title></path>
<path d="M 1200.857142857143 161.0 C 1266.2 161.0, 1284.7 135.0, 1368.0 135.0" fill="none" stroke="#7b6fd6" stroke-opacity="0.30" stroke-width="6.0"><title>turn 6 Runtime error -> turn 7 Compilation error: 1</title></path>
<path d="M 1200.857142857143 185.0 C 1266.2 185.0, 1284.7 179.0, 1368.0 179.0" fill="none" stroke="#d55e00" stroke-opacity="0.30" stroke-width="42.0"><title>turn 6 Runtime error -> turn 7 Runtime error: 7</title></path>
<text class="stage" x="60.0" y="76">turn 0</text>
<rect x="72.0" y="108.0" width="18" height="84.0" rx="3" fill="#7b6fd6"><title>Compilation error: 14</title></rect>
<text class="node-label" x="95.0" y="122.0" text-anchor="start">Compilation error (14)</text>
<rect x="72.0" y="200.0" width="18" height="12.0" rx="3" fill="#d55e00"><title>Runtime error: 2</title></rect>
<text class="node-label" x="95.0" y="212.0" text-anchor="start">Runtime error (2)</text>
<rect x="72.0" y="220.0" width="18" height="6.0" rx="3" fill="#d33f49"><title>Kernel Execution Timeout: 1</title></rect>
<text class="node-label" x="95.0" y="226.0" text-anchor="start">Kernel Execution Timeout (1)</text>
<rect x="72.0" y="234.0" width="18" height="12.0" rx="3" fill="#e4a72b"><title>Numerical error: 2</title></rect>
<text class="node-label" x="95.0" y="246.0" text-anchor="start">Numerical error (2)</text>
<rect x="72.0" y="254.0" width="18" height="6.0" rx="3" fill="#0f766e"><title>Extraction error: 1</title></rect>
<text class="node-label" x="95.0" y="260.0" text-anchor="start">Extraction error (1)</text>
<text class="stage" x="245.1" y="76">turn 1</text>
<rect x="257.1" y="108.0" width="18" height="48.0" rx="3" fill="#7b6fd6"><title>Compilation error: 8</title></rect>
<text class="node-label" x="280.1" y="122.0" text-anchor="start">Compilation error (8)</text>
<rect x="257.1" y="164.0" width="18" height="36.0" rx="3" fill="#d55e00"><title>Runtime error: 6</title></rect>
<text class="node-label" x="280.1" y="178.0" text-anchor="start">Runtime error (6)</text>
<rect x="257.1" y="208.0" width="18" height="12.0" rx="3" fill="#d33f49"><title>Kernel Execution Timeout: 2</title></rect>
<text class="node-label" x="280.1" y="220.0" text-anchor="start">Kernel Execution Timeout (2)</text>
<rect x="257.1" y="228.0" width="18" height="24.0" rx="3" fill="#e4a72b"><title>Numerical error: 4</title></rect>
<text class="node-label" x="280.1" y="242.0" text-anchor="start">Numerical error (4)</text>
<text class="stage" x="430.3" y="76">turn 2</text>
<rect x="442.3" y="108.0" width="18" height="54.0" rx="3" fill="#7b6fd6"><title>Compilation error: 9</title></rect>
<text class="node-label" x="465.3" y="122.0" text-anchor="start">Compilation error (9)</text>
<rect x="442.3" y="170.0" width="18" height="48.0" rx="3" fill="#d55e00"><title>Runtime error: 8</title></rect>
<text class="node-label" x="465.3" y="184.0" text-anchor="start">Runtime error (8)</text>
<rect x="442.3" y="226.0" width="18" height="12.0" rx="3" fill="#d33f49"><title>Kernel Execution Timeout: 2</title></rect>
<text class="node-label" x="465.3" y="238.0" text-anchor="start">Kernel Execution Timeout (2)</text>
<rect x="442.3" y="246.0" width="18" height="6.0" rx="3" fill="#e4a72b"><title>Numerical error: 1</title></rect>
<text class="node-label" x="465.3" y="252.0" text-anchor="start">Numerical error (1)</text>
<text class="stage" x="615.4" y="76">turn 3</text>
<rect x="627.4" y="108.0" width="18" height="36.0" rx="3" fill="#7b6fd6"><title>Compilation error: 6</title></rect>
<text class="node-label" x="650.4" y="122.0" text-anchor="start">Compilation error (6)</text>
<rect x="627.4" y="152.0" width="18" height="48.0" rx="3" fill="#d55e00"><title>Runtime error: 8</title></rect>
<text class="node-label" x="650.4" y="166.0" text-anchor="start">Runtime error (8)</text>
<rect x="627.4" y="208.0" width="18" height="24.0" rx="3" fill="#d33f49"><title>Kernel Execution Timeout: 4</title></rect>
<text class="node-label" x="650.4" y="222.0" text-anchor="start">Kernel Execution Timeout (4)</text>
<rect x="627.4" y="240.0" width="18" height="12.0" rx="3" fill="#e4a72b"><title>Numerical error: 2</title></rect>
<text class="node-label" x="650.4" y="252.0" text-anchor="start">Numerical error (2)</text>
<text class="stage" x="800.6" y="76">turn 4</text>
<rect x="812.6" y="108.0" width="18" height="36.0" rx="3" fill="#7b6fd6"><title>Compilation error: 6</title></rect>
<text class="node-label" x="835.6" y="122.0" text-anchor="start">Compilation error (6)</text>
<rect x="812.6" y="152.0" width="18" height="60.0" rx="3" fill="#d55e00"><title>Runtime error: 10</title></rect>
<text class="node-label" x="835.6" y="166.0" text-anchor="start">Runtime error (10)</text>
<rect x="812.6" y="220.0" width="18" height="18.0" rx="3" fill="#d33f49"><title>Kernel Execution Timeout: 3</title></rect>
<text class="node-label" x="835.6" y="234.0" text-anchor="start">Kernel Execution Timeout (3)</text>
<rect x="812.6" y="246.0" width="18" height="6.0" rx="3" fill="#e4a72b"><title>Numerical error: 1</title></rect>
<text class="node-label" x="835.6" y="252.0" text-anchor="start">Numerical error (1)</text>
<text class="stage" x="985.7" y="76">turn 5</text>
<rect x="997.7" y="108.0" width="18" height="6.0" rx="3" fill="#2a9d55"><title>Correct: 1</title></rect>
<text class="node-label" x="1020.7" y="114.0" text-anchor="start">Correct (1)</text>
<rect x="997.7" y="122.0" width="18" height="24.0" rx="3" fill="#7b6fd6"><title>Compilation error: 4</title></rect>
<text class="node-label" x="1020.7" y="136.0" text-anchor="start">Compilation error (4)</text>
<rect x="997.7" y="154.0" width="18" height="54.0" rx="3" fill="#d55e00"><title>Runtime error: 9</title></rect>
<text class="node-label" x="1020.7" y="168.0" text-anchor="start">Runtime error (9)</text>
<rect x="997.7" y="216.0" width="18" height="12.0" rx="3" fill="#d33f49"><title>Kernel Execution Timeout: 2</title></rect>
<text class="node-label" x="1020.7" y="228.0" text-anchor="start">Kernel Execution Timeout (2)</text>
<rect x="997.7" y="236.0" width="18" height="24.0" rx="3" fill="#e4a72b"><title>Numerical error: 4</title></rect>
<text class="node-label" x="1020.7" y="250.0" text-anchor="start">Numerical error (4)</text>
<text class="stage" x="1170.9" y="76">turn 6</text>
<rect x="1182.9" y="108.0" width="18" height="42.0" rx="3" fill="#7b6fd6"><title>Compilation error: 7</title></rect>
<text class="node-label" x="1205.9" y="122.0" text-anchor="start">Compilation error (7)</text>
<rect x="1182.9" y="158.0" width="18" height="54.0" rx="3" fill="#d55e00"><title>Runtime error: 9</title></rect>
<text class="node-label" x="1205.9" y="172.0" text-anchor="start">Runtime error (9)</text>
<rect x="1182.9" y="220.0" width="18" height="18.0" rx="3" fill="#d33f49"><title>Kernel Execution Timeout: 3</title></rect>
<text class="node-label" x="1205.9" y="234.0" text-anchor="start">Kernel Execution Timeout (3)</text>
<rect x="1182.9" y="246.0" width="18" height="6.0" rx="3" fill="#e4a72b"><title>Numerical error: 1</title></rect>
<text class="node-label" x="1205.9" y="252.0" text-anchor="start">Numerical error (1)</text>
<text class="stage" x="1356.0" y="76">turn 7</text>
<rect x="1368.0" y="108.0" width="18" height="30.0" rx="3" fill="#7b6fd6"><title>Compilation error: 5</title></rect>
<text class="node-label" x="1361.0" y="122.0" text-anchor="end">Compilation error (5)</text>
<rect x="1368.0" y="146.0" width="18" height="54.0" rx="3" fill="#d55e00"><title>Runtime error: 9</title></rect>
<text class="node-label" x="1361.0" y="160.0" text-anchor="end">Runtime error (9)</text>
<rect x="1368.0" y="208.0" width="18" height="18.0" rx="3" fill="#d33f49"><title>Kernel Execution Timeout: 3</title></rect>
<text class="node-label" x="1361.0" y="222.0" text-anchor="end">Kernel Execution Timeout (3)</text>
<rect x="1368.0" y="234.0" width="18" height="12.0" rx="3" fill="#e4a72b"><title>Numerical error: 2</title></rect>
<text class="node-label" x="1361.0" y="246.0" text-anchor="end">Numerical error (2)</text>
</svg>