<svg viewBox="0 0 1440 298" width="1440" height="298" xmlns="http://www.w3.org/2000/svg" role="img">
<style>text{font-family:Arial,sans-serif;fill:#1f2937}.small{font-size:12px}.title{font-size:18px;font-weight:700}.stage{font-size:13px;font-weight:700}.node-label{font-size:11px}</style>
<rect x="0" y="0" width="1440" height="298" fill="#ffffff"/>
<text class="title" x="24" y="30">Linfo / mha_bwd_d128: turn-to-turn correctness flow</text>
<text class="small" x="24" y="52">Trajectories: 8; shared definition/prompt-tag subset</text>
<path d="M 90.0 126.0 C 155.3 126.0, 173.8 126.0, 257.1 126.0" fill="none" stroke="#7b6fd6" stroke-opacity="0.30" stroke-width="36.0"><title>turn 0 Compilation error -> turn 1 Compilation error: 6</title></path>
<path d="M 90.0 147.0 C 155.3 147.0, 173.8 161.0, 257.1 161.0" fill="none" stroke="#d55e00" stroke-opacity="0.30" stroke-width="6.0"><title>turn 0 Compilation error -> turn 1 Runtime error: 1</title></path>
<path d="M 90.0 161.0 C 155.3 161.0, 173.8 147.0, 257.1 147.0" fill="none" stroke="#7b6fd6" stroke-opacity="0.30" stroke-width="6.0"><title>turn 0 Extraction error -> turn 1 Compilation error: 1</title></path>
<path d="M 275.1428571428571 111.0 C 340.5 111.0, 359.0 111.0, 442.3 111.0" fill="none" stroke="#7b6fd6" stroke-opacity="0.30" stroke-width="6.0"><title>turn 1 Compilation error -> turn 2 Compilation error: 1</title></path>
<path d="M 275.1428571428571 117.0 C 340.5 117.0, 359.0 169.0, 442.3 169.0" fill="none" stroke="#d33f49" stroke-opacity="0.30" stroke-width="6.0"><title>turn 1 Compilation error -> turn 2 Kernel Execution Timeout: 1</title></path>
<path d="M 275.1428571428571 135.0 C 340.5 135.0, 359.0 143.0, 442.3 143.0" fill="none" stroke="#d55e00" stroke-opacity="0.30" stroke-width="30.0"><title>turn 1 Compilation error -> turn 2 Runtime error: 5</title></path>
<path d="M 275.1428571428571 161.0 C 340.5 161.0, 359.0 117.0, 442.3 117.0" fill="none" stroke="#7b6fd6" stroke-opacity="0.30" stroke-width="6.0"><title>turn 1 Runtime error -> turn 2 Compilation error: 1</title></path>
<path d="M 460.2857142857143 111.0 C 525.6 111.0, 544.1 111.0, 627.4 111.0" fill="none" stroke="#7b6fd6" stroke-opacity="0.30" stroke-width="6.0"><title>turn 2 Compilation error -> turn 3 Compilation error: 1</title></path>
<path d="M 460.2857142857143 117.0 C 525.6 117.0, 544.1 149.0, 627.4 149.0" fill="none" stroke="#d55e00" stroke-opacity="0.30" stroke-width="6.0"><title>turn 2 Compilation error -> turn 3 Runtime error: 1</title></path>
<path d="M 460.2857142857143 169.0 C 525.6 169.0, 544.1 117.0, 627.4 117.0" fill="none" stroke="#7b6fd6" stroke-opacity="0.30" stroke-width="6.0"><title>turn 2 Kernel Execution Timeout -> turn 3 Compilation error: 1</title></path>
<path d="M 460.2857142857143 137.0 C 525.6 137.0, 544.1 129.0, 627.4 129.0" fill="none" stroke="#7b6fd6" stroke-opacity="0.30" stroke-width="18.0"><title>turn 2 Runtime error -> turn 3 Compilation error: 3</title></path>
<path d="M 460.2857142857143 152.0 C 525.6 152.0, 544.1 158.0, 627.4 158.0" fill="none" stroke="#d55e00" stroke-opacity="0.30" stroke-width="12.0"><title>turn 2 Runtime error -> turn 3 Runtime error: 2</title></path>
<path d="M 645.4285714285714 117.0 C 710.7 117.0, 729.3 117.0, 812.6 117.0" fill="none" stroke="#7b6fd6" stroke-opacity="0.30" stroke-width="18.0"><title>turn 3 Compilation error -> turn 4 Compilation error: 3</title></path>
<path d="M 645.4285714285714 132.0 C 710.7 132.0, 729.3 146.0, 812.6 146.0" fill="none" stroke="#d55e00" stroke-opacity="0.30" stroke-width="12.0"><title>turn 3 Compilation error -> turn 4 Runtime error: 2</title></path>
<path d="M 645.4285714285714 149.0 C 710.7 149.0, 729.3 129.0, 812.6 129.0" fill="none" stroke="#7b6fd6" stroke-opacity="0.30" stroke-width="6.0"><title>turn 3 Runtime error -> turn 4 Compilation error: 1</title></path>
<path d="M 645.4285714285714 158.0 C 710.7 158.0, 729.3 158.0, 812.6 158.0" fill="none" stroke="#d55e00" stroke-opacity="0.30" stroke-width="12.0"><title>turn 3 Runtime error -> turn 4 Runtime error: 2</title></path>
<path d="M 830.5714285714286 114.0 C 895.9 114.0, 914.4 114.0, 997.7 114.0" fill="none" stroke="#7b6fd6" stroke-opacity="0.30" stroke-width="12.0"><title>turn 4 Compilation error -> turn 5 Compilation error: 2</title></path>
<path d="M 830.5714285714286 126.0 C 895.9 126.0, 914.4 152.0, 997.7 152.0" fill="none" stroke="#d55e00" stroke-opacity="0.30" stroke-width="12.0"><title>turn 4 Compilation error -> turn 5 Runtime error: 2</title></path>
<path d="M 830.5714285714286 149.0 C 895.9 149.0, 914.4 129.0, 997.7 129.0" fill="none" stroke="#7b6fd6" stroke-opacity="0.30" stroke-width="18.0"><title>turn 4 Runtime error -> turn 5 Compilation error: 3</title></path>
<path d="M 830.5714285714286 161.0 C 895.9 161.0, 914.4 161.0, 997.7 161.0" fill="none" stroke="#d55e00" stroke-opacity="0.30" stroke-width="6.0"><title>turn 4 Runtime error -> turn 5 Runtime error: 1</title></path>
<path d="M 1015.7142857142857 117.0 C 1081.0 117.0, 1099.5 117.0, 1182.9 117.0" fill="none" stroke="#7b6fd6" stroke-opacity="0.30" stroke-width="18.0"><title>turn 5 Compilation error -> turn 6 Compilation error: 3</title></path>
<path d="M 1015.7142857142857 132.0 C 1081.0 132.0, 1099.5 140.0, 1182.9 140.0" fill="none" stroke="#d55e00" stroke-opacity="0.30" stroke-width="12.0"><title>turn 5 Compilation error -> turn 6 Runtime error: 2</title></path>
<path d="M 1015.7142857142857 155.0 C 1081.0 155.0, 1099.5 155.0, 1182.9 155.0" fill="none" stroke="#d55e00" stroke-opacity="0.30" stroke-width="18.0"><title>turn 5 Runtime error -> turn 6 Runtime error: 3</title></path>
<path d="M 1200.857142857143 111.0 C 1266.2 111.0, 1284.7 111.0, 1368.0 111.0" fill="none" stroke="#7b6fd6" stroke-opacity="0.30" stroke-width="6.0"><title>turn 6 Compilation error -> turn 7 Compilation error: 1</title></path>
<path d="M 1200.857142857143 120.0 C 1266.2 120.0, 1284.7 140.0, 1368.0 140.0" fill="none" stroke="#d55e00" stroke-opacity="0.30" stroke-width="12.0"><title>turn 6 Compilation error -> turn 7 Runtime error: 2</title></path>
<path d="M 1200.857142857143 140.0 C 1266.2 140.0, 1284.7 120.0, 1368.0 120.0" fill="none" stroke="#7b6fd6" stroke-opacity="0.30" stroke-width="12.0"><title>turn 6 Runtime error -> turn 7 Compilation error: 2</title></path>
<path d="M 1200.857142857143 155.0 C 1266.2 155.0, 1284.7 155.0, 1368.0 155.0" fill="none" stroke="#d55e00" stroke-opacity="0.30" stroke-width="18.0"><title>turn 6 Runtime error -> turn 7 Runtime error: 3</title></path>
<text class="stage" x="60.0" y="76">turn 0</text>
<rect x="72.0" y="108.0" width="18" height="42.0" rx="3" fill="#7b6fd6"><title>Compilation error: 7</title></rect>
<text class="node-label" x="95.0" y="122.0" text-anchor="start">Compilation error (7)</text>
<rect x="72.0" y="158.0" width="18" height="6.0" rx="3" fill="#0f766e"><title>Extraction error: 1</title></rect>
<text class="node-label" x="95.0" y="164.0" text-anchor="start">Extraction error (1)</text>
<text class="stage" x="245.1" y="76">turn 1</text>
<rect x="257.1" y="108.0" width="18" height="42.0" rx="3" fill="#7b6fd6"><title>Compilation error: 7</title></rect>
<text class="node-label" x="280.1" y="122.0" text-anchor="start">Compilation error (7)</text>
<rect x="257.1" y="158.0" width="18" height="6.0" rx="3" fill="#d55e00"><title>Runtime error: 1</title></rect>
<text class="node-label" x="280.1" y="164.0" text-anchor="start">Runtime error (1)</text>
<text class="stage" x="430.3" y="76">turn 2</text>
<rect x="442.3" y="108.0" width="18" height="12.0" rx="3" fill="#7b6fd6"><title>Compilation error: 2</title></rect>
<text class="node-label" x="465.3" y="120.0" text-anchor="start">Compilation error (2)</text>
<rect x="442.3" y="128.0" width="18" height="30.0" rx="3" fill="#d55e00"><title>Runtime error: 5</title></rect>
<text class="node-label" x="465.3" y="142.0" text-anchor="start">Runtime error (5)</text>
<rect x="442.3" y="166.0" width="18" height="6.0" rx="3" fill="#d33f49"><title>Kernel Execution Timeout: 1</title></rect>
<text class="node-label" x="465.3" y="172.0" text-anchor="start">Kernel Execution Timeout (1)</text>
<text class="stage" x="615.4" y="76">turn 3</text>
<rect x="627.4" y="108.0" width="18" height="30.0" rx="3" fill="#7b6fd6"><title>Compilation error: 5</title></rect>
<text class="node-label" x="650.4" y="122.0" text-anchor="start">Compilation error (5)</text>
<rect x="627.4" y="146.0" width="18" height="18.0" rx="3" fill="#d55e00"><title>Runtime error: 3</title></rect>
<text class="node-label" x="650.4" y="160.0" text-anchor="start">Runtime error (3)</text>
<text class="stage" x="800.6" y="76">turn 4</text>
<rect x="812.6" y="108.0" width="18" height="24.0" rx="3" fill="#7b6fd6"><title>Compilation error: 4</title></rect>
<text class="node-label" x="835.6" y="122.0" text-anchor="start">Compilation error (4)</text>
<rect x="812.6" y="140.0" width="18" height="24.0" rx="3" fill="#d55e00"><title>Runtime error: 4</title></rect>
<text class="node-label" x="835.6" y="154.0" text-anchor="start">Runtime error (4)</text>
<text class="stage" x="985.7" y="76">turn 5</text>
<rect x="997.7" y="108.0" width="18" height="30.0" rx="3" fill="#7b6fd6"><title>Compilation error: 5</title></rect>
<text class="node-label" x="1020.7" y="122.0" text-anchor="start">Compilation error (5)</text>
<rect x="997.7" y="146.0" width="18" height="18.0" rx="3" fill="#d55e00"><title>Runtime error: 3</title></rect>
<text class="node-label" x="1020.7" y="160.0" text-anchor="start">Runtime error (3)</text>
<text class="stage" x="1170.9" y="76">turn 6</text>
<rect x="1182.9" y="108.0" width="18" height="18.0" rx="3" fill="#7b6fd6"><title>Compilation error: 3</title></rect>
<text class="node-label" x="1205.9" y="122.0" text-anchor="start">Compilation error (3)</text>
<rect x="1182.9" y="134.0" width="18" height="30.0" rx="3" fill="#d55e00"><title>Runtime error: 5</title></rect>
<text class="node-label" x="1205.9" y="148.0" text-anchor="start">Runtime error (5)</text>
<text class="stage" x="1356.0" y="76">turn 7</text>
<rect x="1368.0" y="108.0" width="18" height="18.0" rx="3" fill="#7b6fd6"><title>Compilation error: 3</title></rect>
<text class="node-label" x="1361.0" y="122.0" text-anchor="end">Compilation error (3)</text>
<rect x="1368.0" y="134.0" width="18" height="30.0" rx="3" fill="#d55e00"><title>Runtime error: 5</title></rect>
<text class="node-label" x="1361.0" y="148.0" text-anchor="end">Runtime error (5)</text>
</svg>