<svg viewBox="0 0 1440 298" width="1440" height="298" xmlns="http://www.w3.org/2000/svg" role="img">
<style>text{font-family:Arial,sans-serif;fill:#1f2937}.small{font-size:12px}.title{font-size:18px;font-weight:700}.stage{font-size:13px;font-weight:700}.node-label{font-size:11px}</style>
<rect x="0" y="0" width="1440" height="298" fill="#ffffff"/>
<text class="title" x="24" y="30">Latest-pair patched / mha_bwd_d128: turn-to-turn correctness flow</text>
<text class="small" x="24" y="52">Trajectories: 8; shared definition/prompt-tag subset</text>
<path d="M 90.0 111.0 C 155.3 111.0, 173.8 111.0, 257.1 111.0" fill="none" stroke="#7b6fd6" stroke-opacity="0.30" stroke-width="6.0"><title>turn 0 Compilation error -> turn 1 Compilation error: 1</title></path>
<path d="M 90.0 117.0 C 155.3 117.0, 173.8 131.0, 257.1 131.0" fill="none" stroke="#0f766e" stroke-opacity="0.30" stroke-width="6.0"><title>turn 0 Compilation error -> turn 1 Extraction error: 1</title></path>
<path d="M 90.0 132.0 C 155.3 132.0, 173.8 154.0, 257.1 154.0" fill="none" stroke="#6b7280" stroke-opacity="0.30" stroke-width="24.0"><title>turn 0 Compilation error -> turn 1 Other error: 4</title></path>
<path d="M 90.0 155.0 C 155.3 155.0, 173.8 117.0, 257.1 117.0" fill="none" stroke="#7b6fd6" stroke-opacity="0.30" stroke-width="6.0"><title>turn 0 Other error -> turn 1 Compilation error: 1</title></path>
<path d="M 90.0 161.0 C 155.3 161.0, 173.8 169.0, 257.1 169.0" fill="none" stroke="#6b7280" stroke-opacity="0.30" stroke-width="6.0"><title>turn 0 Other error -> turn 1 Other error: 1</title></path>
<path d="M 275.1428571428571 111.0 C 340.5 111.0, 359.0 111.0, 442.3 111.0" fill="none" stroke="#7b6fd6" stroke-opacity="0.30" stroke-width="6.0"><title>turn 1 Compilation error -> turn 2 Compilation error: 1</title></path>
<path d="M 275.1428571428571 117.0 C 340.5 117.0, 359.0 137.0, 442.3 137.0" fill="none" stroke="#6b7280" stroke-opacity="0.30" stroke-width="6.0"><title>turn 1 Compilation error -> turn 2 Other error: 1</title></path>
<path d="M 275.1428571428571 131.0 C 340.5 131.0, 359.0 143.0, 442.3 143.0" fill="none" stroke="#6b7280" stroke-opacity="0.30" stroke-width="6.0"><title>turn 1 Extraction error -> turn 2 Other error: 1</title></path>
<path d="M 275.1428571428571 148.0 C 340.5 148.0, 359.0 120.0, 442.3 120.0" fill="none" stroke="#7b6fd6" stroke-opacity="0.30" stroke-width="12.0"><title>turn 1 Other error -> turn 2 Compilation error: 2</title></path>
<path d="M 275.1428571428571 163.0 C 340.5 163.0, 359.0 155.0, 442.3 155.0" fill="none" stroke="#6b7280" stroke-opacity="0.30" stroke-width="18.0"><title>turn 1 Other error -> turn 2 Other error: 3</title></path>
<path d="M 460.2857142857143 111.0 C 525.6 111.0, 544.1 111.0, 627.4 111.0" fill="none" stroke="#7b6fd6" stroke-opacity="0.30" stroke-width="6.0"><title>turn 2 Compilation error -> turn 3 Compilation error: 1</title></path>
<path d="M 460.2857142857143 120.0 C 525.6 120.0, 544.1 134.0, 627.4 134.0" fill="none" stroke="#6b7280" stroke-opacity="0.30" stroke-width="12.0"><title>turn 2 Compilation error -> turn 3 Other error: 2</title></path>
<path d="M 460.2857142857143 137.0 C 525.6 137.0, 544.1 117.0, 627.4 117.0" fill="none" stroke="#7b6fd6" stroke-opacity="0.30" stroke-width="6.0"><title>turn 2 Other error -> turn 3 Compilation error: 1</title></path>
<path d="M 460.2857142857143 152.0 C 525.6 152.0, 544.1 152.0, 627.4 152.0" fill="none" stroke="#6b7280" stroke-opacity="0.30" stroke-width="24.0"><title>turn 2 Other error -> turn 3 Other error: 4</title></path>
<path d="M 645.4285714285714 111.0 C 710.7 111.0, 729.3 125.0, 812.6 125.0" fill="none" stroke="#0f766e" stroke-opacity="0.30" stroke-width="6.0"><title>turn 3 Compilation error -> turn 4 Extraction error: 1</title></path>
<path d="M 645.4285714285714 117.0 C 710.7 117.0, 729.3 139.0, 812.6 139.0" fill="none" stroke="#6b7280" stroke-opacity="0.30" stroke-width="6.0"><title>turn 3 Compilation error -> turn 4 Other error: 1</title></path>
<path d="M 645.4285714285714 131.0 C 710.7 131.0, 729.3 111.0, 812.6 111.0" fill="none" stroke="#7b6fd6" stroke-opacity="0.30" stroke-width="6.0"><title>turn 3 Other error -> turn 4 Compilation error: 1</title></path>
<path d="M 645.4285714285714 149.0 C 710.7 149.0, 729.3 157.0, 812.6 157.0" fill="none" stroke="#6b7280" stroke-opacity="0.30" stroke-width="30.0"><title>turn 3 Other error -> turn 4 Other error: 5</title></path>
<path d="M 830.5714285714286 111.0 C 895.9 111.0, 914.4 131.0, 997.7 131.0" fill="none" stroke="#6b7280" stroke-opacity="0.30" stroke-width="6.0"><title>turn 4 Compilation error -> turn 5 Other error: 1</title></path>
<path d="M 830.5714285714286 125.0 C 895.9 125.0, 914.4 111.0, 997.7 111.0" fill="none" stroke="#7b6fd6" stroke-opacity="0.30" stroke-width="6.0"><title>turn 4 Extraction error -> turn 5 Compilation error: 1</title></path>
<path d="M 830.5714285714286 139.0 C 895.9 139.0, 914.4 117.0, 997.7 117.0" fill="none" stroke="#7b6fd6" stroke-opacity="0.30" stroke-width="6.0"><title>turn 4 Other error -> turn 5 Compilation error: 1</title></path>
<path d="M 830.5714285714286 157.0 C 895.9 157.0, 914.4 149.0, 997.7 149.0" fill="none" stroke="#6b7280" stroke-opacity="0.30" stroke-width="30.0"><title>turn 4 Other error -> turn 5 Other error: 5</title></path>
<path d="M 1015.7142857142857 111.0 C 1081.0 111.0, 1099.5 111.0, 1182.9 111.0" fill="none" stroke="#7b6fd6" stroke-opacity="0.30" stroke-width="6.0"><title>turn 5 Compilation error -> turn 6 Compilation error: 1</title></path>
<path d="M 1015.7142857142857 117.0 C 1081.0 117.0, 1099.5 125.0, 1182.9 125.0" fill="none" stroke="#6b7280" stroke-opacity="0.30" stroke-width="6.0"><title>turn 5 Compilation error -> turn 6 Other error: 1</title></path>
<path d="M 1015.7142857142857 146.0 C 1081.0 146.0, 1099.5 146.0, 1182.9 146.0" fill="none" stroke="#6b7280" stroke-opacity="0.30" stroke-width="36.0"><title>turn 5 Other error -> turn 6 Other error: 6</title></path>
<path d="M 1200.857142857143 111.0 C 1266.2 111.0, 1284.7 139.0, 1368.0 139.0" fill="none" stroke="#6b7280" stroke-opacity="0.30" stroke-width="6.0"><title>turn 6 Compilation error -> turn 7 Other error: 1</title></path>
<path d="M 1200.857142857143 125.0 C 1266.2 125.0, 1284.7 111.0, 1368.0 111.0" fill="none" stroke="#7b6fd6" stroke-opacity="0.30" stroke-width="6.0"><title>turn 6 Other error -> turn 7 Compilation error: 1</title></path>
<path d="M 1200.857142857143 131.0 C 1266.2 131.0, 1284.7 125.0, 1368.0 125.0" fill="none" stroke="#0f766e" stroke-opacity="0.30" stroke-width="6.0"><title>turn 6 Other error -> turn 7 Extraction error: 1</title></path>
<path d="M 1200.857142857143 149.0 C 1266.2 149.0, 1284.7 157.0, 1368.0 157.0" fill="none" stroke="#6b7280" stroke-opacity="0.30" stroke-width="30.0"><title>turn 6 Other error -> turn 7 Other error: 5</title></path>
<text class="stage" x="60.0" y="76">turn 0</text>
<rect x="72.0" y="108.0" width="18" height="36.0" rx="3" fill="#7b6fd6"><title>Compilation error: 6</title></rect>
<text class="node-label" x="95.0" y="122.0" text-anchor="start">Compilation error (6)</text>
<rect x="72.0" y="152.0" width="18" height="12.0" rx="3" fill="#6b7280"><title>Other error: 2</title></rect>
<text class="node-label" x="95.0" y="164.0" text-anchor="start">Other error (2)</text>
<text class="stage" x="245.1" y="76">turn 1</text>
<rect x="257.1" y="108.0" width="18" height="12.0" rx="3" fill="#7b6fd6"><title>Compilation error: 2</title></rect>
<text class="node-label" x="280.1" y="120.0" text-anchor="start">Compilation error (2)</text>
<rect x="257.1" y="128.0" width="18" height="6.0" rx="3" fill="#0f766e"><title>Extraction error: 1</title></rect>
<text class="node-label" x="280.1" y="134.0" text-anchor="start">Extraction error (1)</text>
<rect x="257.1" y="142.0" width="18" height="30.0" rx="3" fill="#6b7280"><title>Other error: 5</title></rect>
<text class="node-label" x="280.1" y="156.0" text-anchor="start">Other error (5)</text>
<text class="stage" x="430.3" y="76">turn 2</text>
<rect x="442.3" y="108.0" width="18" height="18.0" rx="3" fill="#7b6fd6"><title>Compilation error: 3</title></rect>
<text class="node-label" x="465.3" y="122.0" text-anchor="start">Compilation error (3)</text>
<rect x="442.3" y="134.0" width="18" height="30.0" rx="3" fill="#6b7280"><title>Other error: 5</title></rect>
<text class="node-label" x="465.3" y="148.0" text-anchor="start">Other error (5)</text>
<text class="stage" x="615.4" y="76">turn 3</text>
<rect x="627.4" y="108.0" width="18" height="12.0" rx="3" fill="#7b6fd6"><title>Compilation error: 2</title></rect>
<text class="node-label" x="650.4" y="120.0" text-anchor="start">Compilation error (2)</text>
<rect x="627.4" y="128.0" width="18" height="36.0" rx="3" fill="#6b7280"><title>Other error: 6</title></rect>
<text class="node-label" x="650.4" y="142.0" text-anchor="start">Other error (6)</text>
<text class="stage" x="800.6" y="76">turn 4</text>
<rect x="812.6" y="108.0" width="18" height="6.0" rx="3" fill="#7b6fd6"><title>Compilation error: 1</title></rect>
<text class="node-label" x="835.6" y="114.0" text-anchor="start">Compilation error (1)</text>
<rect x="812.6" y="122.0" width="18" height="6.0" rx="3" fill="#0f766e"><title>Extraction error: 1</title></rect>
<text class="node-label" x="835.6" y="128.0" text-anchor="start">Extraction error (1)</text>
<rect x="812.6" y="136.0" width="18" height="36.0" rx="3" fill="#6b7280"><title>Other error: 6</title></rect>
<text class="node-label" x="835.6" y="150.0" text-anchor="start">Other error (6)</text>
<text class="stage" x="985.7" y="76">turn 5</text>
<rect x="997.7" y="108.0" width="18" height="12.0" rx="3" fill="#7b6fd6"><title>Compilation error: 2</title></rect>
<text class="node-label" x="1020.7" y="120.0" text-anchor="start">Compilation error (2)</text>
<rect x="997.7" y="128.0" width="18" height="36.0" rx="3" fill="#6b7280"><title>Other error: 6</title></rect>
<text class="node-label" x="1020.7" y="142.0" text-anchor="start">Other error (6)</text>
<text class="stage" x="1170.9" y="76">turn 6</text>
<rect x="1182.9" y="108.0" width="18" height="6.0" rx="3" fill="#7b6fd6"><title>Compilation error: 1</title></rect>
<text class="node-label" x="1205.9" y="114.0" text-anchor="start">Compilation error (1)</text>
<rect x="1182.9" y="122.0" width="18" height="42.0" rx="3" fill="#6b7280"><title>Other error: 7</title></rect>
<text class="node-label" x="1205.9" y="136.0" text-anchor="start">Other error (7)</text>
<text class="stage" x="1356.0" y="76">turn 7</text>
<rect x="1368.0" y="108.0" width="18" height="6.0" rx="3" fill="#7b6fd6"><title>Compilation error: 1</title></rect>
<text class="node-label" x="1361.0" y="114.0" text-anchor="end">Compilation error (1)</text>
<rect x="1368.0" y="122.0" width="18" height="6.0" rx="3" fill="#0f766e"><title>Extraction error: 1</title></rect>
<text class="node-label" x="1361.0" y="128.0" text-anchor="end">Extraction error (1)</text>
<rect x="1368.0" y="136.0" width="18" height="36.0" rx="3" fill="#6b7280"><title>Other error: 6</title></rect>
<text class="node-label" x="1361.0" y="150.0" text-anchor="end">Other error (6)</text>
</svg>