<svg viewBox="0 0 1440 298" width="1440" height="298" xmlns="http://www.w3.org/2000/svg" role="img">
<style>text{font-family:Arial,sans-serif;fill:#1f2937}.small{font-size:12px}.title{font-size:18px;font-weight:700}.stage{font-size:13px;font-weight:700}.node-label{font-size:11px}</style>
<rect x="0" y="0" width="1440" height="298" fill="#ffffff"/>
<text class="title" x="24" y="30">Regular patched / mha_with_lse_d128_causal: turn-to-turn correctness flow</text>
<text class="small" x="24" y="52">Trajectories: 8; shared definition/prompt-tag subset</text>
<path d="M 90.0 111.0 C 155.3 111.0, 173.8 111.0, 257.1 111.0" fill="none" stroke="#7b6fd6" stroke-opacity="0.30" stroke-width="6.0"><title>turn 0 Compilation error -> turn 1 Compilation error: 1</title></path>
<path d="M 90.0 120.0 C 155.3 120.0, 173.8 146.0, 257.1 146.0" fill="none" stroke="#d33f49" stroke-opacity="0.30" stroke-width="12.0"><title>turn 0 Compilation error -> turn 1 Kernel Execution Timeout: 2</title></path>
<path d="M 90.0 132.0 C 155.3 132.0, 173.8 166.0, 257.1 166.0" fill="none" stroke="#e4a72b" stroke-opacity="0.30" stroke-width="12.0"><title>turn 0 Compilation error -> turn 1 Numerical error: 2</title></path>
<path d="M 90.0 152.0 C 155.3 152.0, 173.8 120.0, 257.1 120.0" fill="none" stroke="#7b6fd6" stroke-opacity="0.30" stroke-width="12.0"><title>turn 0 Kernel Execution Timeout -> turn 1 Compilation error: 2</title></path>
<path d="M 90.0 169.0 C 155.3 169.0, 173.8 129.0, 257.1 129.0" fill="none" stroke="#7b6fd6" stroke-opacity="0.30" stroke-width="6.0"><title>turn 0 Numerical error -> turn 1 Compilation error: 1</title></path>
<path d="M 275.1428571428571 111.0 C 340.5 111.0, 359.0 111.0, 442.3 111.0" fill="none" stroke="#7b6fd6" stroke-opacity="0.30" stroke-width="6.0"><title>turn 1 Compilation error -> turn 2 Compilation error: 1</title></path>
<path d="M 275.1428571428571 120.0 C 340.5 120.0, 359.0 148.0, 442.3 148.0" fill="none" stroke="#d33f49" stroke-opacity="0.30" stroke-width="12.0"><title>turn 1 Compilation error -> turn 2 Kernel Execution Timeout: 2</title></path>
<path d="M 275.1428571428571 129.0 C 340.5 129.0, 359.0 125.0, 442.3 125.0" fill="none" stroke="#d55e00" stroke-opacity="0.30" stroke-width="6.0"><title>turn 1 Compilation error -> turn 2 Runtime error: 1</title></path>
<path d="M 275.1428571428571 143.0 C 340.5 143.0, 359.0 157.0, 442.3 157.0" fill="none" stroke="#d33f49" stroke-opacity="0.30" stroke-width="6.0"><title>turn 1 Kernel Execution Timeout -> turn 2 Kernel Execution Timeout: 1</title></path>
<path d="M 275.1428571428571 149.0 C 340.5 149.0, 359.0 131.0, 442.3 131.0" fill="none" stroke="#d55e00" stroke-opacity="0.30" stroke-width="6.0"><title>turn 1 Kernel Execution Timeout -> turn 2 Runtime error: 1</title></path>
<path d="M 275.1428571428571 166.0 C 340.5 166.0, 359.0 174.0, 442.3 174.0" fill="none" stroke="#e4a72b" stroke-opacity="0.30" stroke-width="12.0"><title>turn 1 Numerical error -> turn 2 Numerical error: 2</title></path>
<path d="M 460.2857142857143 111.0 C 525.6 111.0, 544.1 151.0, 627.4 151.0" fill="none" stroke="#e4a72b" stroke-opacity="0.30" stroke-width="6.0"><title>turn 2 Compilation error -> turn 3 Numerical error: 1</title></path>
<path d="M 460.2857142857143 148.0 C 525.6 148.0, 544.1 114.0, 627.4 114.0" fill="none" stroke="#7b6fd6" stroke-opacity="0.30" stroke-width="12.0"><title>turn 2 Kernel Execution Timeout -> turn 3 Compilation error: 2</title></path>
<path d="M 460.2857142857143 157.0 C 525.6 157.0, 544.1 157.0, 627.4 157.0" fill="none" stroke="#e4a72b" stroke-opacity="0.30" stroke-width="6.0"><title>turn 2 Kernel Execution Timeout -> turn 3 Numerical error: 1</title></path>
<path d="M 460.2857142857143 174.0 C 525.6 174.0, 544.1 166.0, 627.4 166.0" fill="none" stroke="#e4a72b" stroke-opacity="0.30" stroke-width="12.0"><title>turn 2 Numerical error -> turn 3 Numerical error: 2</title></path>
<path d="M 460.2857142857143 125.0 C 525.6 125.0, 544.1 123.0, 627.4 123.0" fill="none" stroke="#7b6fd6" stroke-opacity="0.30" stroke-width="6.0"><title>turn 2 Runtime error -> turn 3 Compilation error: 1</title></path>
<path d="M 460.2857142857143 131.0 C 525.6 131.0, 544.1 137.0, 627.4 137.0" fill="none" stroke="#d55e00" stroke-opacity="0.30" stroke-width="6.0"><title>turn 2 Runtime error -> turn 3 Runtime error: 1</title></path>
<path d="M 645.4285714285714 111.0 C 710.7 111.0, 729.3 125.0, 812.6 125.0" fill="none" stroke="#7b6fd6" stroke-opacity="0.30" stroke-width="6.0"><title>turn 3 Compilation error -> turn 4 Compilation error: 1</title></path>
<path d="M 645.4285714285714 117.0 C 710.7 117.0, 729.3 159.0, 812.6 159.0" fill="none" stroke="#d33f49" stroke-opacity="0.30" stroke-width="6.0"><title>turn 3 Compilation error -> turn 4 Kernel Execution Timeout: 1</title></path>
<path d="M 645.4285714285714 123.0 C 710.7 123.0, 729.3 145.0, 812.6 145.0" fill="none" stroke="#d55e00" stroke-opacity="0.30" stroke-width="6.0"><title>turn 3 Compilation error -> turn 4 Runtime error: 1</title></path>
<path d="M 645.4285714285714 151.0 C 710.7 151.0, 729.3 111.0, 812.6 111.0" fill="none" stroke="#2a9d55" stroke-opacity="0.30" stroke-width="6.0"><title>turn 3 Numerical error -> turn 4 Correct: 1</title></path>
<path d="M 645.4285714285714 157.0 C 710.7 157.0, 729.3 193.0, 812.6 193.0" fill="none" stroke="#0f766e" stroke-opacity="0.30" stroke-width="6.0"><title>turn 3 Numerical error -> turn 4 Extraction error: 1</title></path>
<path d="M 645.4285714285714 163.0 C 710.7 163.0, 729.3 165.0, 812.6 165.0" fill="none" stroke="#d33f49" stroke-opacity="0.30" stroke-width="6.0"><title>turn 3 Numerical error -> turn 4 Kernel Execution Timeout: 1</title></path>
<path d="M 645.4285714285714 169.0 C 710.7 169.0, 729.3 179.0, 812.6 179.0" fill="none" stroke="#e4a72b" stroke-opacity="0.30" stroke-width="6.0"><title>turn 3 Numerical error -> turn 4 Numerical error: 1</title></path>
<path d="M 645.4285714285714 137.0 C 710.7 137.0, 729.3 131.0, 812.6 131.0" fill="none" stroke="#7b6fd6" stroke-opacity="0.30" stroke-width="6.0"><title>turn 3 Runtime error -> turn 4 Compilation error: 1</title></path>
<path d="M 830.5714285714286 125.0 C 895.9 125.0, 914.4 125.0, 997.7 125.0" fill="none" stroke="#7b6fd6" stroke-opacity="0.30" stroke-width="6.0"><title>turn 4 Compilation error -> turn 5 Compilation error: 1</title></path>
<path d="M 830.5714285714286 131.0 C 895.9 131.0, 914.4 139.0, 997.7 139.0" fill="none" stroke="#d55e00" stroke-opacity="0.30" stroke-width="6.0"><title>turn 4 Compilation error -> turn 5 Runtime error: 1</title></path>
<path d="M 830.5714285714286 111.0 C 895.9 111.0, 914.4 111.0, 997.7 111.0" fill="none" stroke="#2a9d55" stroke-opacity="0.30" stroke-width="6.0"><title>turn 4 Correct -> turn 5 Correct: 1</title></path>
<path d="M 830.5714285714286 193.0 C 895.9 193.0, 914.4 145.0, 997.7 145.0" fill="none" stroke="#d55e00" stroke-opacity="0.30" stroke-width="6.0"><title>turn 4 Extraction error -> turn 5 Runtime error: 1</title></path>
<path d="M 830.5714285714286 162.0 C 895.9 162.0, 914.4 168.0, 997.7 168.0" fill="none" stroke="#d33f49" stroke-opacity="0.30" stroke-width="12.0"><title>turn 4 Kernel Execution Timeout -> turn 5 Kernel Execution Timeout: 2</title></path>
<path d="M 830.5714285714286 179.0 C 895.9 179.0, 914.4 185.0, 997.7 185.0" fill="none" stroke="#e4a72b" stroke-opacity="0.30" stroke-width="6.0"><title>turn 4 Numerical error -> turn 5 Numerical error: 1</title></path>
<path d="M 830.5714285714286 145.0 C 895.9 145.0, 914.4 151.0, 997.7 151.0" fill="none" stroke="#d55e00" stroke-opacity="0.30" stroke-width="6.0"><title>turn 4 Runtime error -> turn 5 Runtime error: 1</title></path>
<path d="M 1015.7142857142857 125.0 C 1081.0 125.0, 1099.5 151.0, 1182.9 151.0" fill="none" stroke="#d55e00" stroke-opacity="0.30" stroke-width="6.0"><title>turn 5 Compilation error -> turn 6 Runtime error: 1</title></path>
<path d="M 1015.7142857142857 111.0 C 1081.0 111.0, 1099.5 171.0, 1182.9 171.0" fill="none" stroke="#e4a72b" stroke-opacity="0.30" stroke-width="6.0"><title>turn 5 Correct -> turn 6 Numerical error: 1</title></path>
<path d="M 1015.7142857142857 165.0 C 1081.0 165.0, 1099.5 125.0, 1182.9 125.0" fill="none" stroke="#7b6fd6" stroke-opacity="0.30" stroke-width="6.0"><title>turn 5 Kernel Execution Timeout -> turn 6 Compilation error: 1</title></path>
<path d="M 1015.7142857142857 171.0 C 1081.0 171.0, 1099.5 111.0, 1182.9 111.0" fill="none" stroke="#2a9d55" stroke-opacity="0.30" stroke-width="6.0"><title>turn 5 Kernel Execution Timeout -> turn 6 Correct: 1</title></path>
<path d="M 1015.7142857142857 185.0 C 1081.0 185.0, 1099.5 131.0, 1182.9 131.0" fill="none" stroke="#7b6fd6" stroke-opacity="0.30" stroke-width="6.0"><title>turn 5 Numerical error -> turn 6 Compilation error: 1</title></path>
<path d="M 1015.7142857142857 139.0 C 1081.0 139.0, 1099.5 137.0, 1182.9 137.0" fill="none" stroke="#7b6fd6" stroke-opacity="0.30" stroke-width="6.0"><title>turn 5 Runtime error -> turn 6 Compilation error: 1</title></path>
<path d="M 1015.7142857142857 145.0 C 1081.0 145.0, 1099.5 177.0, 1182.9 177.0" fill="none" stroke="#e4a72b" stroke-opacity="0.30" stroke-width="6.0"><title>turn 5 Runtime error -> turn 6 Numerical error: 1</title></path>
<path d="M 1015.7142857142857 151.0 C 1081.0 151.0, 1099.5 157.0, 1182.9 157.0" fill="none" stroke="#d55e00" stroke-opacity="0.30" stroke-width="6.0"><title>turn 5 Runtime error -> turn 6 Runtime error: 1</title></path>
<path d="M 1200.857142857143 125.0 C 1266.2 125.0, 1284.7 125.0, 1368.0 125.0" fill="none" stroke="#d33f49" stroke-opacity="0.30" stroke-width="6.0"><title>turn 6 Compilation error -> turn 7 Kernel Execution Timeout: 1</title></path>
<path d="M 1200.857142857143 134.0 C 1266.2 134.0, 1284.7 154.0, 1368.0 154.0" fill="none" stroke="#e4a72b" stroke-opacity="0.30" stroke-width="12.0"><title>turn 6 Compilation error -> turn 7 Numerical error: 2</title></path>
<path d="M 1200.857142857143 111.0 C 1266.2 111.0, 1284.7 131.0, 1368.0 131.0" fill="none" stroke="#d33f49" stroke-opacity="0.30" stroke-width="6.0"><title>turn 6 Correct -> turn 7 Kernel Execution Timeout: 1</title></path>
<path d="M 1200.857142857143 174.0 C 1266.2 174.0, 1284.7 166.0, 1368.0 166.0" fill="none" stroke="#e4a72b" stroke-opacity="0.30" stroke-width="12.0"><title>turn 6 Numerical error -> turn 7 Numerical error: 2</title></path>
<path d="M 1200.857142857143 151.0 C 1266.2 151.0, 1284.7 137.0, 1368.0 137.0" fill="none" stroke="#d33f49" stroke-opacity="0.30" stroke-width="6.0"><title>turn 6 Runtime error -> turn 7 Kernel Execution Timeout: 1</title></path>
<path d="M 1200.857142857143 157.0 C 1266.2 157.0, 1284.7 111.0, 1368.0 111.0" fill="none" stroke="#d55e00" stroke-opacity="0.30" stroke-width="6.0"><title>turn 6 Runtime error -> turn 7 Runtime error: 1</title></path>
<text class="stage" x="60.0" y="76">turn 0</text>
<rect x="72.0" y="108.0" width="18" height="30.0" rx="3" fill="#7b6fd6"><title>Compilation error: 5</title></rect>
<text class="node-label" x="95.0" y="122.0" text-anchor="start">Compilation error (5)</text>
<rect x="72.0" y="146.0" width="18" height="12.0" rx="3" fill="#d33f49"><title>Kernel Execution Timeout: 2</title></rect>
<text class="node-label" x="95.0" y="158.0" text-anchor="start">Kernel Execution Timeout (2)</text>
<rect x="72.0" y="166.0" width="18" height="6.0" rx="3" fill="#e4a72b"><title>Numerical error: 1</title></rect>
<text class="node-label" x="95.0" y="172.0" text-anchor="start">Numerical error (1)</text>
<text class="stage" x="245.1" y="76">turn 1</text>
<rect x="257.1" y="108.0" width="18" height="24.0" rx="3" fill="#7b6fd6"><title>Compilation error: 4</title></rect>
<text class="node-label" x="280.1" y="122.0" text-anchor="start">Compilation error (4)</text>
<rect x="257.1" y="140.0" width="18" height="12.0" rx="3" fill="#d33f49"><title>Kernel Execution Timeout: 2</title></rect>
<text class="node-label" x="280.1" y="152.0" text-anchor="start">Kernel Execution Timeout (2)</text>
<rect x="257.1" y="160.0" width="18" height="12.0" rx="3" fill="#e4a72b"><title>Numerical error: 2</title></rect>
<text class="node-label" x="280.1" y="172.0" text-anchor="start">Numerical error (2)</text>
<text class="stage" x="430.3" y="76">turn 2</text>
<rect x="442.3" y="108.0" width="18" height="6.0" rx="3" fill="#7b6fd6"><title>Compilation error: 1</title></rect>
<text class="node-label" x="465.3" y="114.0" text-anchor="start">Compilation error (1)</text>
<rect x="442.3" y="122.0" width="18" height="12.0" rx="3" fill="#d55e00"><title>Runtime error: 2</title></rect>
<text class="node-label" x="465.3" y="134.0" text-anchor="start">Runtime error (2)</text>
<rect x="442.3" y="142.0" width="18" height="18.0" rx="3" fill="#d33f49"><title>Kernel Execution Timeout: 3</title></rect>
<text class="node-label" x="465.3" y="156.0" text-anchor="start">Kernel Execution Timeout (3)</text>
<rect x="442.3" y="168.0" width="18" height="12.0" rx="3" fill="#e4a72b"><title>Numerical error: 2</title></rect>
<text class="node-label" x="465.3" y="180.0" text-anchor="start">Numerical error (2)</text>
<text class="stage" x="615.4" y="76">turn 3</text>
<rect x="627.4" y="108.0" width="18" height="18.0" rx="3" fill="#7b6fd6"><title>Compilation error: 3</title></rect>
<text class="node-label" x="650.4" y="122.0" text-anchor="start">Compilation error (3)</text>
<rect x="627.4" y="134.0" width="18" height="6.0" rx="3" fill="#d55e00"><title>Runtime error: 1</title></rect>
<text class="node-label" x="650.4" y="140.0" text-anchor="start">Runtime error (1)</text>
<rect x="627.4" y="148.0" width="18" height="24.0" rx="3" fill="#e4a72b"><title>Numerical error: 4</title></rect>
<text class="node-label" x="650.4" y="162.0" text-anchor="start">Numerical error (4)</text>
<text class="stage" x="800.6" y="76">turn 4</text>
<rect x="812.6" y="108.0" width="18" height="6.0" rx="3" fill="#2a9d55"><title>Correct: 1</title></rect>
<text class="node-label" x="835.6" y="114.0" text-anchor="start">Correct (1)</text>
<rect x="812.6" y="122.0" width="18" height="12.0" rx="3" fill="#7b6fd6"><title>Compilation error: 2</title></rect>
<text class="node-label" x="835.6" y="134.0" text-anchor="start">Compilation error (2)</text>
<rect x="812.6" y="142.0" width="18" height="6.0" rx="3" fill="#d55e00"><title>Runtime error: 1</title></rect>
<text class="node-label" x="835.6" y="148.0" text-anchor="start">Runtime error (1)</text>
<rect x="812.6" y="156.0" width="18" height="12.0" rx="3" fill="#d33f49"><title>Kernel Execution Timeout: 2</title></rect>
<text class="node-label" x="835.6" y="168.0" text-anchor="start">Kernel Execution Timeout (2)</text>
<rect x="812.6" y="176.0" width="18" height="6.0" rx="3" fill="#e4a72b"><title>Numerical error: 1</title></rect>
<text class="node-label" x="835.6" y="182.0" text-anchor="start">Numerical error (1)</text>
<rect x="812.6" y="190.0" width="18" height="6.0" rx="3" fill="#0f766e"><title>Extraction error: 1</title></rect>
<text class="node-label" x="835.6" y="196.0" text-anchor="start">Extraction error (1)</text>
<text class="stage" x="985.7" y="76">turn 5</text>
<rect x="997.7" y="108.0" width="18" height="6.0" rx="3" fill="#2a9d55"><title>Correct: 1</title></rect>
<text class="node-label" x="1020.7" y="114.0" text-anchor="start">Correct (1)</text>
<rect x="997.7" y="122.0" width="18" height="6.0" rx="3" fill="#7b6fd6"><title>Compilation error: 1</title></rect>
<text class="node-label" x="1020.7" y="128.0" text-anchor="start">Compilation error (1)</text>
<rect x="997.7" y="136.0" width="18" height="18.0" rx="3" fill="#d55e00"><title>Runtime error: 3</title></rect>
<text class="node-label" x="1020.7" y="150.0" text-anchor="start">Runtime error (3)</text>
<rect x="997.7" y="162.0" width="18" height="12.0" rx="3" fill="#d33f49"><title>Kernel Execution Timeout: 2</title></rect>
<text class="node-label" x="1020.7" y="174.0" text-anchor="start">Kernel Execution Timeout (2)</text>
<rect x="997.7" y="182.0" width="18" height="6.0" rx="3" fill="#e4a72b"><title>Numerical error: 1</title></rect>
<text class="node-label" x="1020.7" y="188.0" text-anchor="start">Numerical error (1)</text>
<text class="stage" x="1170.9" y="76">turn 6</text>
<rect x="1182.9" y="108.0" width="18" height="6.0" rx="3" fill="#2a9d55"><title>Correct: 1</title></rect>
<text class="node-label" x="1205.9" y="114.0" text-anchor="start">Correct (1)</text>
<rect x="1182.9" y="122.0" width="18" height="18.0" rx="3" fill="#7b6fd6"><title>Compilation error: 3</title></rect>
<text class="node-label" x="1205.9" y="136.0" text-anchor="start">Compilation error (3)</text>
<rect x="1182.9" y="148.0" width="18" height="12.0" rx="3" fill="#d55e00"><title>Runtime error: 2</title></rect>
<text class="node-label" x="1205.9" y="160.0" text-anchor="start">Runtime error (2)</text>
<rect x="1182.9" y="168.0" width="18" height="12.0" rx="3" fill="#e4a72b"><title>Numerical error: 2</title></rect>
<text class="node-label" x="1205.9" y="180.0" text-anchor="start">Numerical error (2)</text>
<text class="stage" x="1356.0" y="76">turn 7</text>
<rect x="1368.0" y="108.0" width="18" height="6.0" rx="3" fill="#d55e00"><title>Runtime error: 1</title></rect>
<text class="node-label" x="1361.0" y="114.0" text-anchor="end">Runtime error (1)</text>
<rect x="1368.0" y="122.0" width="18" height="18.0" rx="3" fill="#d33f49"><title>Kernel Execution Timeout: 3</title></rect>
<text class="node-label" x="1361.0" y="136.0" text-anchor="end">Kernel Execution Timeout (3)</text>
<rect x="1368.0" y="148.0" width="18" height="24.0" rx="3" fill="#e4a72b"><title>Numerical error: 4</title></rect>
<text class="node-label" x="1361.0" y="162.0" text-anchor="end">Numerical error (4)</text>
</svg>